<svg width="42" height="42" viewBox="0 0 42 42" fill="none" xmlns="http://www.w3.org/2000/svg">
<circle cx="21" cy="21" r="20.75" stroke="black" stroke-width="0.5"/>
<mask id="mask0_14_496" style="mask-type:luminance" maskUnits="userSpaceOnUse" x="12" y="10" width="21" height="22">
<path d="M19.4554 31.0104C22.6682 31.0104 24.8103 27.9675 24.8103 24.6262V19.8713C23.5681 20.0423 21.6402 20.2139 20.0979 20.4708C16.3704 21.1565 15.8994 24.3263 15.8994 26.1258C15.8994 28.8675 17.0131 31.0104 19.4554 31.0104ZM32.1366 28.2248L32.3082 28.3103C31.8799 29.6393 30.8941 31.2671 28.4952 31.2671C26.2239 31.2671 24.8103 30.1103 24.8103 27.1108V26.4684C24.2105 28.9536 22.2827 31.2671 19.0697 31.2671C15.6852 31.2671 12.0005 30.1961 12.0005 26.1683C12.0005 21.799 16.2426 20.8564 19.9265 20.2567L24.8101 19.6572V19.3998C24.8101 15.0303 25.1099 10.7886 20.6979 10.7886C18.2128 10.7886 16.5846 11.688 16.5846 13.3589C16.5846 14.1301 16.8849 14.4727 16.8849 15.4586C16.8849 16.5296 16.2847 17.1723 15.2565 17.1723C14.271 17.1723 13.6283 16.3587 13.6283 15.3304C13.6283 12.3739 17.356 10.6172 20.6979 10.6172C26.2237 10.6172 28.495 13.4876 28.495 18.7574V27.0685C28.495 28.997 28.3661 30.6248 29.7799 30.6248C30.9367 30.6246 31.7508 29.4253 32.1366 28.2248Z" fill="white"/>
</mask>
<g mask="url(#mask0_14_496)">
<mask id="mask1_14_496" style="mask-type:luminance" maskUnits="userSpaceOnUse" x="-540" y="-49" width="679" height="526">
<path d="M138.911 -48.1992H-539.662V476.153H138.911V-48.1992Z" fill="white"/>
</mask>
<g mask="url(#mask1_14_496)">
<mask id="mask2_14_496" style="mask-type:luminance" maskUnits="userSpaceOnUse" x="-540" y="-49" width="679" height="526">
<path d="M138.911 -48.2129H-539.662V476.14H138.911V-48.2129Z" fill="white"/>
</mask>
<g mask="url(#mask2_14_496)">
<path d="M33.1642 9.75977H11.1437V32.1231H33.1642V9.75977Z" fill="black"/>
</g>
</g>
</g>
</svg>
