<svg width="61" height="61" viewBox="0 0 61 61" fill="none" xmlns="http://www.w3.org/2000/svg">
<circle cx="30.5" cy="30.5" r="30.25" fill="black" fill-opacity="0.11" stroke="white" stroke-width="0.5"/>
<mask id="mask0_59_19" style="mask-type:luminance" maskUnits="userSpaceOnUse" x="17" y="15" width="30" height="31">
<path d="M28.2559 45.0366C32.9221 45.0366 36.0331 40.6172 36.0331 35.7644V28.8585C34.229 29.1068 31.429 29.3561 29.189 29.7292C23.7753 30.7251 23.0911 35.3289 23.0911 37.9423C23.0911 41.9244 24.7087 45.0366 28.2559 45.0366ZM46.6737 40.9909L46.923 41.1151C46.3009 43.0453 44.8692 45.4095 41.3851 45.4095C38.0863 45.4095 36.0331 43.7295 36.0331 39.373V38.4399C35.1621 42.0495 32.3621 45.4095 27.6956 45.4095C22.7801 45.4095 17.4285 43.8539 17.4285 38.0041C17.4285 31.6582 23.5897 30.2892 28.9401 29.4182L36.0328 28.5475V28.1737C36.0328 21.8275 36.4684 15.6669 30.0604 15.6669C26.4511 15.6669 24.0863 16.9732 24.0863 19.4C24.0863 20.52 24.5225 21.0176 24.5225 22.4496C24.5225 24.0051 23.6508 24.9385 22.1574 24.9385C20.7261 24.9385 19.7926 23.7568 19.7926 22.2633C19.7926 17.9693 25.2067 15.418 30.0604 15.418C38.086 15.418 41.3848 19.5869 41.3848 27.2406V39.3116C41.3848 42.1125 41.1976 44.4766 43.251 44.4766C44.931 44.4763 46.1134 42.7346 46.6737 40.9909Z" fill="white"/>
</mask>
<g mask="url(#mask0_59_19)">
<mask id="mask1_59_19" style="mask-type:luminance" maskUnits="userSpaceOnUse" x="-784" y="-71" width="986" height="763">
<path d="M201.751 -70.0039H-783.796V691.555H201.751V-70.0039Z" fill="white"/>
</mask>
<g mask="url(#mask1_59_19)">
<mask id="mask2_59_19" style="mask-type:luminance" maskUnits="userSpaceOnUse" x="-784" y="-71" width="986" height="763">
<path d="M201.752 -70.0234H-783.795V691.537H201.752V-70.0234Z" fill="white"/>
</mask>
<g mask="url(#mask2_59_19)">
<path d="M48.1665 14.1758H16.1843V46.6559H48.1665V14.1758Z" fill="white"/>
</g>
</g>
</g>
</svg>
