<svg width="18" height="14" viewBox="0 0 18 14" fill="none" xmlns="http://www.w3.org/2000/svg">
<path d="M15.075 0.662247C14.4256 0.952774 13.8032 1.30753 13.2091 1.70317C12.0143 2.48928 10.922 3.42537 9.8974 4.42361C8.87326 5.42436 7.91981 6.49523 7.01826 7.60875C6.79279 7.8872 5.78327 9.12698 5.78327 9.12698L2.77378 5.17842L0 7.22892L3.07279 10.8518L5.67753 14C6.22882 12.8838 6.7594 11.782 7.27982 10.8246C7.40916 10.5812 7.54459 10.3521 7.67404 10.1194C7.67404 10.1194 8.34031 8.94815 8.51553 8.65314C9.21617 7.47306 9.97355 6.32361 10.8075 5.23163C11.6424 4.14164 12.5501 3.10107 13.579 2.18632C14.091 1.72593 14.6359 1.30025 15.2198 0.929804C15.8026 0.558631 16.4217 0.233605 17.084 0C16.395 0.13554 15.7228 0.370921 15.075 0.662247Z" fill="#454545"/>
</svg>
