<svg width="20" height="15" viewBox="0 0 20 15" fill="none" xmlns="http://www.w3.org/2000/svg">
<path d="M19.3216 8.47222L19.3216 14.9997L11.1083 14.9997L11.1083 9.84351C11.1083 7.05115 11.5621 5.03002 12.4697 3.78045C13.6604 2.11586 15.5474 0.852755 18.1264 -1.58466e-06L20 2.18788C18.4408 2.66617 17.2906 3.37888 16.5538 4.32605C15.817 5.27354 15.4036 6.65369 15.3184 8.46707L19.3171 8.46707L19.3216 8.47222ZM8.20857 8.47222L8.20857 14.9997L1.31134e-06 15L8.60575e-07 9.84383C6.16459e-07 7.05147 0.453811 5.03034 1.36146 3.78077C2.55211 2.11618 4.43909 0.853071 7.01816 0.000314242L8.89174 2.18819C7.33251 2.66649 6.1823 3.3792 5.44553 4.32637C4.7087 5.27386 4.29532 6.65401 4.21011 8.46738L8.20889 8.46738L8.20857 8.47222Z" fill="#D081A1"/>
</svg>
