<svg width="47" height="70" viewBox="0 0 47 70" fill="none" xmlns="http://www.w3.org/2000/svg">
<rect x="1.07129" y="1" width="44.9286" height="68" rx="10" stroke="white" stroke-opacity="0.5"/>
<path d="M24.4122 21.6647C24.4122 29.6648 24.4122 37.6104 24.4122 45.5697C24.4585 45.5833 24.5049 45.5969 24.5512 45.5969C24.6593 45.4064 24.7674 45.2159 24.8909 45.0254C26.4814 42.4404 28.9985 41.0254 32.2104 40.4948C32.334 40.4676 32.4884 40.59 32.6428 40.6445C32.5502 40.7669 32.473 40.9574 32.334 40.9982C31.6082 41.2159 30.8361 41.3247 30.1412 41.5832C26.9601 42.7533 25.0762 44.835 24.5049 47.8418C24.474 48.0323 24.1806 48.1683 23.9953 48.3588C23.5938 47.2976 23.3621 46.3588 22.9143 45.5289C21.6017 43.1071 19.3472 41.7057 16.3978 41.1343C16.0272 41.0662 15.4558 41.107 15.7029 40.4812C19.3472 40.971 21.0922 42.0866 23.7791 45.6921C23.7791 45.3112 23.7791 45.0527 23.7791 44.7942C23.7791 37.2975 23.7791 29.8009 23.7945 22.2906C23.7945 22.0049 23.5938 21.5423 24.4122 21.6647Z" fill="white" stroke="white"/>
</svg>
