<svg width="64" height="39" viewBox="0 0 64 39" fill="none" xmlns="http://www.w3.org/2000/svg">
<rect x="62.7817" y="0.5" width="37.884" height="62.2818" rx="18.942" transform="rotate(90 62.7817 0.5)" stroke="black"/>
<path d="M41.1565 19.2306C35.2962 19.2306 29.4758 19.2306 23.6453 19.2306C23.6354 19.2597 23.6254 19.2887 23.6254 19.3178C23.7649 19.3857 23.9045 19.4536 24.044 19.5311C25.9376 20.5298 26.9742 22.1102 27.3629 24.127C27.3828 24.2045 27.2931 24.3015 27.2532 24.3984C27.1635 24.3403 27.024 24.2918 26.9941 24.2045C26.8346 23.7488 26.7549 23.264 26.5655 22.8277C25.7084 20.8304 24.1835 19.6475 21.9809 19.2887C21.8414 19.2693 21.7417 19.0851 21.6022 18.9688C22.3796 18.7167 23.0673 18.5712 23.6752 18.2901C25.4493 17.4659 26.4758 16.0503 26.8944 14.1984C26.9443 13.9657 26.9144 13.607 27.3728 13.7621C27.014 16.0503 26.1968 17.146 23.5556 18.833C23.8347 18.833 24.0241 18.833 24.2134 18.833C29.705 18.833 35.1965 18.833 40.698 18.8427C40.9073 18.8427 41.2462 18.7167 41.1565 19.2306Z" fill="black" stroke="black"/>
</svg>
