<svg width="36" height="16" viewBox="0 0 36 16" fill="none" xmlns="http://www.w3.org/2000/svg">
<path d="M34.984 8.22184C28.6443 8.22184 9.51761 8.22185 3.21027 8.22185C3.19949 8.26 3.18871 8.29815 3.18871 8.3363C3.33965 8.42532 3.4906 8.51434 3.64154 8.61607C5.69008 9.92592 6.81138 11.9988 7.23187 14.6439C7.25344 14.7457 7.1564 14.8728 7.11328 15C7.01624 14.9237 6.8653 14.8601 6.83295 14.7457C6.66044 14.148 6.57419 13.5121 6.36933 12.9399C5.4421 10.3202 3.79249 8.76868 1.40971 8.29815C1.25877 8.27272 1.15095 8.03109 1 7.87849C1.84098 7.54785 2.58493 7.35709 3.24262 6.9883C5.16177 5.90735 6.27229 4.05067 6.72513 1.62173C6.77904 1.31652 6.74669 0.845989 7.24266 1.04946C6.85451 4.05067 5.97041 5.48769 3.11323 7.70045C3.41513 7.70045 3.61998 7.70045 3.82483 7.70045C9.76559 7.70045 28.5365 7.70044 34.488 7.71316C34.7144 7.71316 35.081 7.54784 34.984 8.22184Z" fill="#D081A1" stroke="#D081A1" stroke-width="0.5"/>
</svg>
