<svg width="690" height="579" viewBox="0 0 690 579" fill="none" xmlns="http://www.w3.org/2000/svg">
<rect width="690" height="579" rx="25" fill="#D081A1"/>
<path d="M158.286 304.067C158.286 313.727 150.094 321.186 136.277 321.186C129.552 321.186 122.826 316.662 119.035 316.662C116.712 316.662 115.979 318.74 115.489 320.575H115V300.154H115.489C117.813 309.325 124.538 320.575 136.276 320.575C145.202 320.575 150.338 316.417 150.338 308.959C150.338 301.378 141.657 299.91 131.875 295.63C119.769 290.128 116.59 285.359 116.59 277.411C116.59 268.607 124.049 262.249 135.054 262.249C142.145 262.249 145.936 266.162 149.116 266.162C151.194 266.162 151.684 264.694 152.295 263.349H152.784V279.612H152.295C149.971 270.319 143.858 262.738 135.054 262.738C126.617 262.738 123.315 267.873 123.315 272.765C123.315 277.9 125.394 280.468 137.133 284.993C154.618 291.84 158.286 296.609 158.286 304.067Z" fill="white"/>
<path d="M158.286 304.067C158.286 313.727 150.094 321.186 136.277 321.186C129.552 321.186 122.826 316.662 119.035 316.662C116.712 316.662 115.979 318.74 115.489 320.575H115V300.154H115.489C117.813 309.325 124.538 320.575 136.276 320.575C145.202 320.575 150.338 316.417 150.338 308.959C150.338 301.378 141.657 299.91 131.875 295.63C119.769 290.128 116.59 285.359 116.59 277.411C116.59 268.607 124.049 262.249 135.054 262.249C142.145 262.249 145.936 266.162 149.116 266.162C151.194 266.162 151.684 264.694 152.295 263.349H152.784V279.612H152.295C149.971 270.319 143.858 262.738 135.054 262.738C126.617 262.738 123.315 267.873 123.315 272.765C123.315 277.9 125.394 280.468 137.133 284.993C154.618 291.84 158.286 296.609 158.286 304.067Z" stroke="white" stroke-width="0.5"/>
<path d="M222.855 319.352V319.964H193.631V319.352H202.924V282.058C202.924 275.944 202.679 263.716 193.264 263.716C181.893 263.716 176.879 280.346 176.879 289.761V319.352H186.294V319.964H157.07V319.352H166.364V263.961H157.07V263.35H176.879V283.281C178.468 273.866 183.605 262.249 195.832 262.249C205.248 262.249 213.562 266.896 213.562 283.77V319.352H222.855Z" fill="white"/>
<path d="M222.855 319.352V319.964H193.631V319.352H202.924V282.058C202.924 275.944 202.679 263.716 193.264 263.716C181.893 263.716 176.879 280.346 176.879 289.761V319.352H186.294V319.964H157.07V319.352H166.364V263.961H157.07V263.35H176.879V283.281C178.468 273.866 183.605 262.249 195.832 262.249C205.248 262.249 213.562 266.896 213.562 283.77V319.352H222.855Z" stroke="white" stroke-width="0.5"/>
<path d="M279.584 312.749C278.361 316.54 275.549 321.186 268.701 321.186C262.22 321.186 258.185 317.885 258.185 309.325V307.491C256.474 314.583 250.971 321.186 241.801 321.186C232.14 321.186 221.625 318.129 221.625 306.635C221.625 294.163 233.73 291.473 244.246 289.761C248.525 289.15 254.395 288.539 258.185 288.049V287.315C258.185 274.844 259.041 262.738 246.447 262.738C239.355 262.738 234.708 265.306 234.708 270.075C234.708 272.275 235.564 273.254 235.564 276.066C235.564 279.123 233.852 280.957 230.917 280.957C228.106 280.957 226.271 278.634 226.271 275.699C226.271 267.262 236.909 262.249 246.446 262.249C262.22 262.249 268.701 270.441 268.701 285.482V309.203C268.701 314.705 268.334 319.352 272.369 319.352C275.671 319.352 277.994 315.928 279.094 312.504L279.584 312.749ZM258.186 302.233V288.66C254.64 289.149 249.138 289.639 244.736 290.372C234.098 292.328 232.753 301.377 232.753 306.512C232.753 314.338 235.932 320.452 242.902 320.452C252.072 320.452 258.186 311.771 258.186 302.233Z" fill="white"/>
<path d="M279.584 312.749C278.361 316.54 275.549 321.186 268.701 321.186C262.22 321.186 258.185 317.885 258.185 309.325V307.491C256.474 314.583 250.971 321.186 241.801 321.186C232.14 321.186 221.625 318.129 221.625 306.635C221.625 294.163 233.73 291.473 244.246 289.761C248.525 289.15 254.395 288.539 258.185 288.049V287.315C258.185 274.844 259.041 262.738 246.447 262.738C239.355 262.738 234.708 265.306 234.708 270.075C234.708 272.275 235.564 273.254 235.564 276.066C235.564 279.123 233.852 280.957 230.917 280.957C228.106 280.957 226.271 278.634 226.271 275.699C226.271 267.262 236.909 262.249 246.446 262.249C262.22 262.249 268.701 270.441 268.701 285.482V309.203C268.701 314.705 268.334 319.352 272.369 319.352C275.671 319.352 277.994 315.928 279.094 312.504L279.584 312.749ZM258.186 302.233V288.66C254.64 289.149 249.138 289.639 244.736 290.372C234.098 292.328 232.753 301.377 232.753 306.512C232.753 314.338 235.932 320.452 242.902 320.452C252.072 320.452 258.186 311.771 258.186 302.233Z" stroke="white" stroke-width="0.5"/>
<path d="M331.076 326.568C331.076 340.997 316.158 350.412 301.363 350.412C286.69 350.412 275.93 343.931 275.93 335.372C275.93 327.669 284.489 323.267 291.214 322.166C282.533 320.821 278.986 317.519 278.986 312.506C278.986 304.803 287.79 302.235 292.07 301.379C284.856 298.2 279.598 291.597 279.598 282.915C279.598 270.199 290.603 262.251 302.463 262.251C306.499 262.251 310.411 263.106 313.835 264.818C315.18 259.194 319.215 254.058 325.451 254.058C328.386 254.058 330.586 255.403 330.586 257.971C330.586 259.805 329.242 261.272 327.163 261.272C323.861 261.272 323.372 258.827 320.316 258.827C317.748 258.827 315.302 261.15 314.446 265.063C320.927 268.487 325.451 274.723 325.451 282.915C325.451 295.51 314.446 303.458 302.463 303.458C299.161 303.458 295.738 302.846 292.804 301.624C289.257 302.235 281.921 304.436 281.921 308.716C281.921 312.996 288.279 312.507 304.786 312.507C322.517 312.506 331.076 315.685 331.076 326.568ZM325.451 331.703C325.451 321.676 313.712 322.777 301.974 322.777C298.55 322.777 295.493 322.654 292.926 322.288C289.013 322.899 282.899 325.467 282.899 334.515C282.899 343.808 289.624 349.8 301.485 349.8C313.102 349.8 325.451 343.564 325.451 331.703ZM290.48 282.915C290.48 291.23 292.314 302.968 302.463 302.968C312.735 302.968 314.568 291.23 314.568 282.915C314.568 274.6 312.735 262.739 302.463 262.739C292.314 262.739 290.48 274.6 290.48 282.915Z" fill="white"/>
<path d="M331.076 326.568C331.076 340.997 316.158 350.412 301.363 350.412C286.69 350.412 275.93 343.931 275.93 335.372C275.93 327.669 284.489 323.267 291.214 322.166C282.533 320.821 278.986 317.519 278.986 312.506C278.986 304.803 287.79 302.235 292.07 301.379C284.856 298.2 279.598 291.597 279.598 282.915C279.598 270.199 290.603 262.251 302.463 262.251C306.499 262.251 310.411 263.106 313.835 264.818C315.18 259.194 319.215 254.058 325.451 254.058C328.386 254.058 330.586 255.403 330.586 257.971C330.586 259.805 329.242 261.272 327.163 261.272C323.861 261.272 323.372 258.827 320.316 258.827C317.748 258.827 315.302 261.15 314.446 265.063C320.927 268.487 325.451 274.723 325.451 282.915C325.451 295.51 314.446 303.458 302.463 303.458C299.161 303.458 295.738 302.846 292.804 301.624C289.257 302.235 281.921 304.436 281.921 308.716C281.921 312.996 288.279 312.507 304.786 312.507C322.517 312.506 331.076 315.685 331.076 326.568ZM325.451 331.703C325.451 321.676 313.712 322.777 301.974 322.777C298.55 322.777 295.493 322.654 292.926 322.288C289.013 322.899 282.899 325.467 282.899 334.515C282.899 343.808 289.624 349.8 301.485 349.8C313.102 349.8 325.451 343.564 325.451 331.703ZM290.48 282.915C290.48 291.23 292.314 302.968 302.463 302.968C312.735 302.968 314.568 291.23 314.568 282.915C314.568 274.6 312.735 262.739 302.463 262.739C292.314 262.739 290.48 274.6 290.48 282.915Z" stroke="white" stroke-width="0.5"/>
<path d="M362.948 286.409C362.85 284.569 362.733 282.359 362.753 280.715H362.694C362.244 282.261 361.696 283.905 361.031 285.724L358.703 292.121H357.412L355.279 285.841C354.653 283.982 354.125 282.28 353.753 280.715H353.714C353.676 282.359 353.577 284.57 353.46 286.545L353.108 292.199H351.484L352.404 279.013H354.576L356.826 285.391C357.374 287.015 357.823 288.463 358.156 289.832H358.215C358.547 288.502 359.018 287.054 359.604 285.391L361.952 279.013H364.124L364.945 292.199H363.282L362.948 286.409Z" fill="white"/>
<path d="M372.945 292.199V286.604L368.777 279.013H370.714L372.573 282.652C373.081 283.65 373.473 284.452 373.884 285.372H373.923C374.294 284.511 374.744 283.65 375.253 282.652L377.151 279.013H379.087L374.666 286.584V292.199H372.945Z" fill="white"/>
<path d="M382.538 300.511H347.918V301.241H382.538V300.511Z" fill="white"/>
<path d="M191.137 340.728H192.778V348.65H197.728V350.143H191.137V340.728Z" fill="white"/>
<path d="M210.131 346.068C210.131 346.767 210.034 347.381 209.842 347.91C209.649 348.439 209.378 348.881 209.028 349.235C208.679 349.589 208.255 349.854 207.757 350.028C207.259 350.204 206.701 350.291 206.083 350.291C205.473 350.291 204.921 350.203 204.429 350.028C203.935 349.854 203.514 349.591 203.164 349.242C202.814 348.892 202.545 348.459 202.357 347.944C202.168 347.428 202.074 346.83 202.074 346.148V340.728H203.716V346.081C203.716 346.96 203.927 347.627 204.351 348.085C204.776 348.543 205.361 348.771 206.11 348.771C206.849 348.771 207.431 348.552 207.855 348.112C208.279 347.673 208.491 347.019 208.491 346.149V340.729H210.132V346.068H210.131Z" fill="white"/>
<path d="M221.442 350.143L218.967 346.578L216.478 350.143H214.582L218.012 345.355L214.716 340.728H216.667L219.007 344.104L221.361 340.728H223.258L219.976 345.328L223.392 350.143H221.442Z" fill="white"/>
<path d="M235.901 346.068C235.901 346.767 235.804 347.381 235.611 347.91C235.418 348.439 235.147 348.881 234.798 349.235C234.448 349.589 234.025 349.854 233.527 350.028C233.029 350.204 232.471 350.291 231.852 350.291C231.242 350.291 230.69 350.203 230.198 350.028C229.705 349.854 229.283 349.591 228.933 349.242C228.583 348.892 228.315 348.459 228.126 347.944C227.938 347.428 227.844 346.83 227.844 346.148V340.728H229.485V346.081C229.485 346.96 229.697 347.627 230.121 348.085C230.545 348.543 231.131 348.771 231.879 348.771C232.619 348.771 233.201 348.552 233.624 348.112C234.048 347.673 234.26 347.019 234.26 346.149V340.729H235.901V346.068H235.901Z" fill="white"/>
<path d="M247.235 350.143L244.914 346.861H242.837V350.143H241.195V340.728H245.392C245.93 340.728 246.417 340.797 246.851 340.936C247.286 341.076 247.654 341.272 247.954 341.528C248.255 341.784 248.486 342.098 248.647 342.47C248.809 342.842 248.889 343.256 248.889 343.714C248.889 344.109 248.833 344.461 248.721 344.77C248.609 345.079 248.455 345.353 248.257 345.591C248.06 345.828 247.824 346.03 247.551 346.196C247.277 346.362 246.975 346.489 246.643 346.579L249.185 350.144H247.235V350.143ZM246.695 342.619C246.353 342.354 245.872 342.221 245.252 342.221H242.837V345.395H245.265C245.859 345.395 246.331 345.251 246.682 344.963C247.033 344.674 247.208 344.287 247.208 343.801C247.208 343.279 247.036 342.885 246.695 342.619Z" fill="white"/>
<path d="M258.052 350.144H256.384V346.431L252.645 340.728H254.595L257.231 344.898L259.895 340.728H261.791L258.052 346.39V350.144Z" fill="white"/>
<path d="M343.35 341.375C343.905 341.806 344.183 342.394 344.183 343.14C344.183 343.428 344.144 343.683 344.069 343.908C343.993 344.132 343.895 344.328 343.775 344.494C343.655 344.66 343.512 344.806 343.348 344.931C343.184 345.057 343.017 345.165 342.848 345.255C343.124 345.353 343.376 345.467 343.603 345.597C343.83 345.727 344.027 345.881 344.192 346.061C344.357 346.24 344.484 346.453 344.573 346.698C344.662 346.945 344.707 347.229 344.707 347.551C344.707 347.972 344.624 348.343 344.458 348.666C344.293 348.988 344.058 349.259 343.754 349.478C343.45 349.697 343.082 349.863 342.653 349.976C342.223 350.087 341.748 350.143 341.23 350.143H336.879V340.728H341.095C342.044 340.728 342.796 340.943 343.35 341.375ZM342.059 344.391C342.381 344.179 342.542 343.852 342.542 343.411C342.542 343.023 342.402 342.724 342.12 342.512C341.838 342.3 341.429 342.194 340.894 342.194H338.521V344.71H340.773C341.309 344.71 341.737 344.603 342.059 344.391ZM342.584 348.348C342.905 348.128 343.066 347.803 343.066 347.372C343.066 346.969 342.908 346.655 342.591 346.431C342.273 346.207 341.787 346.095 341.136 346.095H338.52V348.677H341.256C341.819 348.677 342.262 348.567 342.584 348.348Z" fill="white"/>
<path d="M358.632 350.144H356.883L355.928 347.871H351.476L350.507 350.144H348.812L352.955 340.662H354.488L358.632 350.144ZM353.695 342.639L352.081 346.405H355.322L353.695 342.639Z" fill="white"/>
<path d="M370.307 349.407C370.024 349.586 369.719 349.743 369.392 349.878C369.065 350.013 368.713 350.118 368.336 350.194C367.959 350.27 367.564 350.309 367.152 350.309C366.417 350.309 365.748 350.186 365.148 349.939C364.547 349.692 364.033 349.351 363.607 348.916C363.181 348.482 362.852 347.968 362.619 347.376C362.385 346.785 362.27 346.143 362.27 345.453C362.27 344.79 362.388 344.162 362.626 343.57C362.864 342.978 363.197 342.46 363.628 342.016C364.059 341.573 364.571 341.221 365.168 340.961C365.765 340.701 366.417 340.571 367.125 340.571C367.537 340.571 367.911 340.6 368.249 340.658C368.585 340.717 368.896 340.799 369.183 340.907C369.47 341.015 369.74 341.147 369.997 341.304C370.252 341.461 370.501 341.643 370.743 341.849L369.694 343.1C369.515 342.947 369.33 342.808 369.143 342.683C368.954 342.557 368.757 342.452 368.551 342.367C368.344 342.282 368.118 342.214 367.872 342.165C367.625 342.116 367.353 342.091 367.058 342.091C366.628 342.091 366.227 342.179 365.854 342.354C365.482 342.529 365.159 342.769 364.886 343.075C364.612 343.381 364.396 343.736 364.239 344.14C364.083 344.544 364.004 344.975 364.004 345.433C364.004 345.919 364.081 346.368 364.233 346.781C364.386 347.194 364.604 347.551 364.885 347.853C365.168 348.154 365.504 348.389 365.894 348.56C366.284 348.731 366.721 348.816 367.206 348.816C367.653 348.816 368.073 348.751 368.463 348.62C368.853 348.489 369.191 348.316 369.478 348.1V346.328H367.07V344.889H371.078V348.843C370.846 349.039 370.589 349.227 370.307 349.407Z" fill="white"/>
<path d="M377.715 343.677C377.778 343.812 377.892 343.937 378.059 344.054C378.225 344.17 378.455 344.278 378.747 344.376C379.039 344.475 379.409 344.578 379.859 344.686C380.353 344.811 380.792 344.95 381.174 345.103C381.556 345.255 381.873 345.441 382.125 345.661C382.377 345.881 382.568 346.136 382.699 346.427C382.829 346.718 382.894 347.062 382.894 347.456C382.894 347.905 382.811 348.303 382.647 348.653C382.482 349.003 382.253 349.298 381.96 349.54C381.667 349.783 381.314 349.966 380.902 350.092C380.49 350.218 380.037 350.28 379.544 350.28C378.818 350.28 378.124 350.157 377.46 349.911C376.796 349.664 376.182 349.285 375.617 348.774L376.612 347.59C377.07 347.985 377.531 348.288 377.998 348.498C378.464 348.708 378.994 348.814 379.585 348.814C380.096 348.814 380.502 348.707 380.802 348.491C381.103 348.276 381.253 347.984 381.253 347.617C381.253 347.447 381.223 347.295 381.165 347.16C381.106 347.025 380.998 346.902 380.842 346.789C380.683 346.677 380.468 346.572 380.193 346.474C379.919 346.375 379.562 346.272 379.122 346.164C378.618 346.048 378.171 345.918 377.78 345.774C377.389 345.631 377.06 345.451 376.796 345.236C376.531 345.021 376.328 344.761 376.189 344.456C376.05 344.152 375.98 343.78 375.98 343.34C375.98 342.928 376.06 342.553 376.22 342.217C376.381 341.881 376.601 341.591 376.881 341.349C377.161 341.107 377.498 340.921 377.892 340.791C378.285 340.661 378.715 340.596 379.182 340.596C379.872 340.596 380.493 340.697 381.044 340.899C381.596 341.1 382.114 341.395 382.598 341.78L381.71 343.031C381.28 342.717 380.854 342.477 380.433 342.311C380.011 342.146 379.585 342.062 379.155 342.062C378.67 342.062 378.294 342.173 378.024 342.392C377.756 342.612 377.621 342.878 377.621 343.192C377.621 343.382 377.652 343.542 377.715 343.677Z" fill="white"/>
<path d="M401.405 341.375C401.959 341.806 402.236 342.394 402.236 343.14C402.236 343.428 402.198 343.683 402.123 343.908C402.047 344.132 401.95 344.328 401.83 344.494C401.709 344.66 401.567 344.806 401.403 344.931C401.238 345.057 401.071 345.165 400.902 345.255C401.179 345.353 401.431 345.467 401.658 345.597C401.885 345.727 402.081 345.881 402.246 346.061C402.411 346.24 402.538 346.453 402.627 346.698C402.716 346.945 402.761 347.229 402.761 347.551C402.761 347.972 402.678 348.343 402.513 348.666C402.347 348.988 402.112 349.259 401.808 349.478C401.504 349.697 401.136 349.863 400.707 349.976C400.277 350.087 399.803 350.143 399.284 350.143H394.934V340.728H399.149C400.098 340.728 400.85 340.943 401.405 341.375ZM400.113 344.391C400.434 344.179 400.596 343.852 400.596 343.411C400.596 343.023 400.455 342.724 400.174 342.512C399.892 342.3 399.483 342.194 398.948 342.194H396.574V344.71H398.826C399.363 344.71 399.792 344.603 400.113 344.391ZM400.638 348.348C400.96 348.128 401.121 347.803 401.121 347.372C401.121 346.969 400.962 346.655 400.645 346.431C400.327 346.207 399.842 346.095 399.189 346.095H396.574V348.677H399.311C399.873 348.677 400.315 348.567 400.638 348.348Z" fill="white"/>
<path d="M416.732 347.309C416.49 347.901 416.149 348.419 415.71 348.863C415.271 349.306 414.751 349.658 414.15 349.918C413.549 350.178 412.886 350.308 412.159 350.308C411.433 350.308 410.769 350.18 410.168 349.925C409.568 349.669 409.053 349.322 408.622 348.883C408.192 348.443 407.856 347.928 407.613 347.336C407.371 346.744 407.25 346.117 407.25 345.453C407.25 344.79 407.371 344.162 407.613 343.57C407.856 342.978 408.196 342.46 408.636 342.016C409.075 341.573 409.594 341.221 410.195 340.961C410.796 340.701 411.46 340.571 412.186 340.571C412.912 340.571 413.576 340.698 414.176 340.954C414.777 341.21 415.293 341.557 415.723 341.996C416.153 342.435 416.49 342.951 416.732 343.543C416.975 344.134 417.096 344.762 417.096 345.426C417.096 346.09 416.974 346.717 416.732 347.309ZM415.125 344.155C414.968 343.747 414.748 343.39 414.466 343.086C414.184 342.78 413.845 342.539 413.451 342.359C413.056 342.18 412.626 342.09 412.16 342.09C411.694 342.09 411.266 342.178 410.875 342.353C410.485 342.527 410.151 342.765 409.873 343.066C409.595 343.366 409.377 343.72 409.221 344.127C409.064 344.536 408.985 344.969 408.985 345.426C408.985 345.883 409.064 346.316 409.221 346.724C409.377 347.132 409.598 347.489 409.88 347.793C410.162 348.098 410.501 348.34 410.896 348.52C411.29 348.699 411.721 348.789 412.186 348.789C412.652 348.789 413.081 348.701 413.471 348.526C413.861 348.352 414.195 348.114 414.472 347.813C414.751 347.513 414.968 347.159 415.125 346.751C415.282 346.343 415.36 345.91 415.36 345.453C415.36 344.996 415.281 344.563 415.125 344.155Z" fill="white"/>
<path d="M428.171 350.143L425.851 346.861H423.774V350.143H422.133V340.728H426.329C426.867 340.728 427.353 340.797 427.789 340.936C428.223 341.076 428.591 341.272 428.891 341.528C429.192 341.784 429.423 342.098 429.585 342.47C429.746 342.842 429.826 343.256 429.826 343.714C429.826 344.109 429.77 344.461 429.659 344.77C429.546 345.079 429.391 345.353 429.195 345.591C428.997 345.828 428.762 346.03 428.489 346.196C428.215 346.362 427.913 346.489 427.581 346.579L430.123 350.144H428.171V350.143ZM427.632 342.619C427.29 342.354 426.809 342.221 426.189 342.221H423.774V345.395H426.202C426.796 345.395 427.268 345.251 427.619 344.963C427.969 344.674 428.145 344.287 428.145 343.801C428.145 343.279 427.975 342.885 427.632 342.619Z" fill="white"/>
<path d="M440.914 350.143L438.594 346.861H436.516V350.143H434.875V340.728H439.072C439.61 340.728 440.096 340.797 440.532 340.936C440.966 341.076 441.334 341.272 441.634 341.528C441.934 341.784 442.165 342.098 442.327 342.47C442.489 342.842 442.569 343.256 442.569 343.714C442.569 344.109 442.513 344.461 442.402 344.77C442.289 345.079 442.134 345.353 441.937 345.591C441.74 345.828 441.505 346.03 441.232 346.196C440.958 346.362 440.655 346.489 440.324 346.579L442.866 350.144H440.914V350.143ZM440.375 342.619C440.032 342.354 439.551 342.221 438.931 342.221H436.517V345.395H438.945C439.539 345.395 440.011 345.251 440.362 344.963C440.712 344.674 440.888 344.287 440.888 343.801C440.888 343.279 440.717 342.885 440.375 342.619Z" fill="white"/>
<path d="M456.697 347.309C456.456 347.901 456.115 348.419 455.676 348.863C455.236 349.306 454.716 349.658 454.115 349.918C453.515 350.178 452.851 350.308 452.125 350.308C451.398 350.308 450.735 350.18 450.134 349.925C449.534 349.669 449.018 349.322 448.588 348.883C448.157 348.443 447.821 347.928 447.578 347.336C447.336 346.744 447.215 346.117 447.215 345.453C447.215 344.79 447.336 344.162 447.578 343.57C447.821 342.978 448.161 342.46 448.6 342.016C449.04 341.573 449.559 341.221 450.161 340.961C450.761 340.701 451.426 340.571 452.152 340.571C452.878 340.571 453.542 340.698 454.142 340.954C454.743 341.21 455.258 341.557 455.689 341.996C456.118 342.435 456.456 342.951 456.697 343.543C456.94 344.134 457.061 344.762 457.061 345.426C457.061 346.09 456.94 346.717 456.697 347.309ZM455.09 344.155C454.933 343.747 454.714 343.39 454.431 343.086C454.149 342.78 453.81 342.539 453.416 342.359C453.021 342.18 452.591 342.09 452.125 342.09C451.659 342.09 451.231 342.178 450.841 342.353C450.451 342.527 450.116 342.765 449.838 343.066C449.56 343.366 449.342 343.72 449.186 344.127C449.029 344.536 448.951 344.969 448.951 345.426C448.951 345.883 449.029 346.316 449.186 346.724C449.343 347.132 449.563 347.489 449.846 347.793C450.128 348.098 450.466 348.34 450.86 348.52C451.255 348.699 451.686 348.789 452.152 348.789C452.618 348.789 453.046 348.701 453.436 348.526C453.827 348.352 454.161 348.114 454.438 347.813C454.716 347.513 454.934 347.159 455.09 346.751C455.247 346.343 455.326 345.91 455.326 345.453C455.326 344.996 455.247 344.563 455.09 344.155Z" fill="white"/>
<path d="M467.197 340.704H468.595L470.909 347.711L473.155 340.731H474.89L471.608 350.213H470.182L467.869 343.447L465.556 350.213H464.13L460.848 340.731H462.637L464.883 347.711L467.197 340.704Z" fill="white"/>
<path d="M486.573 342.229H481.247V344.65H485.967V346.143H481.247V348.658H486.64V350.152H479.605V340.737H486.573L486.573 342.229Z" fill="white"/>
<path d="M499.792 347.285C499.549 347.863 499.207 348.363 498.763 348.784C498.319 349.206 497.79 349.537 497.176 349.779C496.561 350.022 495.886 350.143 495.151 350.143H491.641V340.728H495.151C495.886 340.728 496.561 340.847 497.176 341.084C497.79 341.322 498.319 341.651 498.763 342.073C499.207 342.494 499.549 342.992 499.792 343.566C500.034 344.14 500.156 344.759 500.156 345.422C500.156 346.085 500.034 346.706 499.792 347.285ZM498.184 344.159C498.027 343.767 497.807 343.428 497.523 343.139C497.24 342.851 496.897 342.626 496.492 342.464C496.088 342.302 495.637 342.221 495.143 342.221H493.282V348.65H495.143C495.638 348.65 496.088 348.572 496.492 348.414C496.896 348.256 497.24 348.036 497.523 347.752C497.807 347.468 498.027 347.13 498.184 346.739C498.341 346.347 498.42 345.917 498.42 345.449C498.42 344.981 498.341 344.551 498.184 344.159Z" fill="white"/>
<mask id="mask0_1_2" style="mask-type:luminance" maskUnits="userSpaceOnUse" x="467" y="263" width="59" height="60">
<path d="M489.107 321.757C498.277 321.757 504.391 313.072 504.391 303.535V289.963C500.845 290.451 495.343 290.941 490.941 291.675C480.301 293.632 478.957 302.679 478.957 307.815C478.957 315.641 482.136 321.757 489.107 321.757ZM525.302 313.807L525.792 314.051C524.57 317.844 521.756 322.49 514.909 322.49C508.426 322.49 504.391 319.188 504.391 310.627V308.793C502.679 315.887 497.177 322.49 488.006 322.49C478.345 322.49 467.828 319.433 467.828 307.937C467.828 295.465 479.936 292.775 490.451 291.063L504.39 289.352V288.618C504.39 276.146 505.246 264.039 492.653 264.039C485.56 264.039 480.913 266.606 480.913 271.375C480.913 273.576 481.77 274.554 481.77 277.368C481.77 280.425 480.057 282.26 477.122 282.26C474.309 282.26 472.474 279.937 472.474 277.002C472.474 268.563 483.114 263.549 492.653 263.549C508.425 263.549 514.908 271.742 514.908 286.784V310.506C514.908 316.011 514.54 320.657 518.576 320.657C521.878 320.656 524.201 317.233 525.302 313.807Z" fill="white"/>
</mask>
<g mask="url(#mask0_1_2)">
<mask id="mask1_1_2" style="mask-type:luminance" maskUnits="userSpaceOnUse" x="-1107" y="95" width="1938" height="1498">
<path d="M830.082 95.6699H-1106.77V1592.33H830.082V95.6699Z" fill="white"/>
</mask>
<g mask="url(#mask1_1_2)">
<mask id="mask2_1_2" style="mask-type:luminance" maskUnits="userSpaceOnUse" x="-1107" y="95" width="1938" height="1498">
<path d="M830.09 95.6353H-1106.76V1592.29H830.09V95.6353Z" fill="white"/>
</mask>
<g mask="url(#mask2_1_2)">
<path d="M528.251 261.102H465.398V324.933H528.251V261.102Z" fill="white"/>
</g>
</g>
</g>
<path d="M439.997 255.879C456.994 255.879 466.653 269.696 466.653 285.347C466.653 300.999 456.994 314.816 439.997 314.816C431.682 314.816 425.08 309.802 422.39 302.955L413.219 314.816H411.996V228.611H402.703V228H422.512V267.373C425.202 260.77 431.805 255.879 439.997 255.879ZM438.774 313.96C453.325 313.96 455.404 297.208 455.404 285.347C455.404 273.487 453.325 256.735 438.774 256.735C429.726 256.735 421.9 264.56 421.9 274.342V296.23C421.9 306.256 429.726 313.96 438.774 313.96Z" fill="white"/>
<path d="M466.654 285.612C466.654 301.264 456.993 315.081 439.997 315.081C431.682 315.081 425.079 310.068 422.389 303.22L413.218 315.081H411.996V228.876H402.703V228.265H422.511V267.638C425.202 261.035 431.804 256.144 439.998 256.144C456.994 256.145 466.654 269.962 466.654 285.612ZM455.405 285.612C455.405 273.751 453.325 257 438.775 257C429.727 257 421.901 264.826 421.901 274.608V296.495C421.901 306.522 429.727 314.225 438.775 314.225C453.325 314.225 455.405 297.474 455.405 285.612Z" stroke="white" stroke-width="0.5"/>
<path d="M575.001 327.818C575.001 342.247 560.084 351.662 545.289 351.662C530.615 351.662 519.856 345.181 519.856 336.622C519.856 328.919 528.415 324.517 535.14 323.416C526.459 322.071 522.913 318.77 522.913 313.757C522.913 306.054 531.716 303.486 535.996 302.63C528.782 299.45 523.524 292.848 523.524 284.166C523.524 271.45 534.529 263.502 546.39 263.502C550.425 263.502 554.338 264.358 557.761 266.07C559.106 260.445 563.141 255.31 569.377 255.31C572.311 255.31 574.513 256.655 574.513 259.222C574.513 261.057 573.168 262.524 571.089 262.524C567.787 262.524 567.298 260.078 564.242 260.078C561.674 260.078 559.228 262.402 558.372 266.314C564.853 269.738 569.377 275.974 569.377 284.166C569.377 296.761 558.372 304.709 546.39 304.709C543.088 304.709 539.665 304.097 536.73 302.874C533.184 303.486 525.847 305.686 525.847 309.966C525.847 314.245 532.205 313.756 548.713 313.756C566.442 313.757 575.001 316.936 575.001 327.818ZM569.377 332.954C569.377 322.927 557.638 324.028 545.9 324.028C542.476 324.028 539.419 323.906 536.852 323.538C532.939 324.15 526.825 326.718 526.825 335.766C526.825 345.059 533.55 351.05 545.41 351.05C557.027 351.05 569.377 344.815 569.377 332.954ZM534.406 284.166C534.406 292.481 536.24 304.219 546.389 304.219C556.66 304.219 558.494 292.481 558.494 284.166C558.494 275.852 556.66 263.991 546.389 263.991C536.24 263.991 534.406 275.852 534.406 284.166Z" fill="white"/>
<path d="M574.99 327.819C574.99 342.248 560.072 351.663 545.277 351.663C530.603 351.663 519.844 345.182 519.844 336.623C519.844 328.92 528.403 324.517 535.128 323.417C526.447 322.072 522.901 318.771 522.901 313.757C522.901 306.054 531.705 303.487 535.985 302.63C528.77 299.451 523.512 292.848 523.512 284.166C523.512 271.45 534.517 263.502 546.378 263.502C550.413 263.502 554.326 264.358 557.75 266.07C559.095 260.445 563.129 255.31 569.366 255.31C572.3 255.31 574.501 256.654 574.501 259.222C574.501 261.056 573.157 262.524 571.078 262.524C567.776 262.524 567.287 260.079 564.23 260.079C561.662 260.079 559.217 262.402 558.361 266.315C564.842 269.739 569.366 275.975 569.366 284.167C569.366 296.761 558.361 304.709 546.378 304.709C543.077 304.709 539.653 304.098 536.718 302.875C533.172 303.487 525.835 305.688 525.835 309.967C525.835 314.247 532.194 313.758 548.701 313.758C566.43 313.758 574.99 316.937 574.99 327.819ZM569.365 332.955C569.365 322.928 557.627 324.029 545.888 324.029C542.464 324.029 539.408 323.906 536.84 323.54C532.926 324.151 526.813 326.719 526.813 335.767C526.813 345.06 533.539 351.052 545.399 351.052C557.015 351.052 569.365 344.816 569.365 332.955ZM534.394 284.167C534.394 292.482 536.229 304.22 546.377 304.22C556.648 304.22 558.483 292.482 558.483 284.167C558.483 275.852 556.648 263.992 546.377 263.992C536.229 263.991 534.394 275.852 534.394 284.167Z" stroke="white" stroke-width="0.5"/>
</svg>
