<svg width="64" height="39" viewBox="0 0 64 39" fill="none" xmlns="http://www.w3.org/2000/svg">
<rect x="1.21826" y="38.3828" width="37.884" height="62.2818" rx="18.942" transform="rotate(-90 1.21826 38.3828)" stroke="black"/>
<path d="M22.8435 19.6523C28.7038 19.6523 34.5242 19.6523 40.3547 19.6523C40.3646 19.6232 40.3746 19.5941 40.3746 19.565C40.2351 19.4971 40.0955 19.4292 39.956 19.3517C38.0624 18.353 37.0258 16.7726 36.6371 14.7559C36.6172 14.6783 36.7069 14.5813 36.7468 14.4844C36.8365 14.5425 36.976 14.591 37.0059 14.6783C37.1654 15.134 37.2451 15.6188 37.4345 16.0551C38.2916 18.0524 39.8165 19.2353 42.0191 19.5941C42.1586 19.6135 42.2583 19.7977 42.3978 19.914C41.6204 20.1661 40.9327 20.3116 40.3248 20.5927C38.5507 21.4169 37.5242 22.8325 37.1056 24.6844C37.0557 24.9171 37.0856 25.2758 36.6272 25.1207C36.986 22.8325 37.8032 21.7369 40.4444 20.0498C40.1653 20.0498 39.9759 20.0498 39.7866 20.0498C34.295 20.0498 28.8035 20.0498 23.302 20.0401C23.0927 20.0401 22.7538 20.1661 22.8435 19.6523Z" fill="black" stroke="black"/>
</svg>
