<svg width="36" height="16" viewBox="0 0 36 16" fill="none" xmlns="http://www.w3.org/2000/svg">
<path d="M1.01601 7.77816C7.3557 7.77816 26.4824 7.77815 32.7897 7.77815C32.8005 7.74 32.8113 7.70185 32.8113 7.6637C32.6603 7.57468 32.5094 7.48566 32.3585 7.38393C30.3099 6.07408 29.1886 4.00121 28.7681 1.35607C28.7466 1.25434 28.8436 1.12717 28.8867 0.999995C28.9838 1.0763 29.1347 1.13988 29.1671 1.25433C29.3396 1.85203 29.4258 2.48788 29.6307 3.06015C30.5579 5.67985 32.2075 7.23132 34.5903 7.70185C34.7412 7.72728 34.849 7.96891 35 8.12151C34.159 8.45215 33.4151 8.64291 32.7574 9.0117C30.8382 10.0926 29.7277 11.9493 29.2749 14.3783C29.221 14.6835 29.2533 15.154 28.7573 14.9505C29.1455 11.9493 30.0296 10.5123 32.8868 8.29955C32.5849 8.29955 32.38 8.29955 32.1752 8.29955C26.2344 8.29955 7.46351 8.29956 1.51197 8.28684C1.28555 8.28684 0.918972 8.45216 1.01601 7.77816Z" fill="#D081A1" stroke="#D081A1" stroke-width="0.5"/>
</svg>
