<svg width="17" height="17" viewBox="0 0 17 17" fill="none" xmlns="http://www.w3.org/2000/svg">
<path d="M15.8673 15.1207L12.819 12.0948C15.0925 9.45687 14.9632 5.47419 12.4574 2.96559C11.1657 1.64655 9.43479 1 7.72976 1C6.02468 1 4.29385 1.64655 2.97633 2.96545C0.341225 5.60341 0.341225 9.84471 2.97633 12.4826C4.26802 13.7759 5.99889 14.4482 7.72976 14.4482C9.27988 14.4482 10.8558 13.905 12.0957 12.8189L15.144 15.8705C15.2215 15.9482 15.3507 16 15.4799 16C15.6091 16 15.7383 15.9482 15.8416 15.8449C16.0483 15.6637 16.0483 15.3277 15.8674 15.1207L15.8673 15.1207ZM3.69957 11.7328C2.61455 10.6724 2.04621 9.22421 2.04621 7.72417C2.04621 6.22414 2.64034 4.77592 3.69957 3.68977C4.7846 2.60357 6.20546 2.03461 7.72961 2.03461C9.25377 2.03461 10.6747 2.62939 11.7596 3.68977C12.8189 4.77597 13.413 6.19837 13.413 7.72417C13.413 9.24998 12.8189 10.6724 11.7596 11.7586C10.6746 12.819 9.22798 13.4137 7.72961 13.4137C6.23125 13.4137 4.78455 12.819 3.69957 11.7328Z" fill="#A2A2A2" stroke="#A2A2A2" stroke-width="0.2"/>
</svg>
