<svg width="218" height="60" viewBox="0 0 218 60" fill="none" xmlns="http://www.w3.org/2000/svg">
<path d="M21.3947 36.8413C21.3947 41.3928 17.5348 44.907 11.0248 44.907C7.85611 44.907 4.68746 42.7754 2.90136 42.7754C1.80682 42.7754 1.46104 43.7547 1.23052 44.619H1V34.9978H1.23052C2.32535 39.3187 5.49371 44.619 11.0245 44.619C15.2302 44.619 17.6498 42.6601 17.6498 39.146C17.6498 35.5741 13.5596 34.8828 8.95066 32.8662C3.24715 30.2738 1.74904 28.027 1.74904 24.282C1.74904 20.1341 5.26348 17.1382 10.4485 17.1382C13.7899 17.1382 15.576 18.9818 17.0741 18.9818C18.0533 18.9818 18.2839 18.2902 18.5719 17.6567H18.8024V25.3191H18.5719C17.477 20.9406 14.5967 17.3687 10.4485 17.3687C6.47328 17.3687 4.9177 19.7883 4.9177 22.0929C4.9177 24.5125 5.89726 25.7223 11.428 27.8542C19.6664 31.0804 21.3947 33.3272 21.3947 36.8413Z" fill="white"/>
<path d="M21.3947 36.8413C21.3947 41.3928 17.5348 44.907 11.0248 44.907C7.85611 44.907 4.68746 42.7754 2.90136 42.7754C1.80682 42.7754 1.46104 43.7547 1.23052 44.619H1V34.9978H1.23052C2.32535 39.3187 5.49371 44.619 11.0245 44.619C15.2302 44.619 17.6498 42.6601 17.6498 39.146C17.6498 35.5741 13.5596 34.8828 8.95066 32.8662C3.24715 30.2738 1.74904 28.027 1.74904 24.282C1.74904 20.1341 5.26348 17.1382 10.4485 17.1382C13.7899 17.1382 15.576 18.9818 17.0741 18.9818C18.0533 18.9818 18.2839 18.2902 18.5719 17.6567H18.8024V25.3191H18.5719C17.477 20.9406 14.5967 17.3687 10.4485 17.3687C6.47328 17.3687 4.9177 19.7883 4.9177 22.0929C4.9177 24.5125 5.89726 25.7223 11.428 27.8542C19.6664 31.0804 21.3947 33.3272 21.3947 36.8413Z" stroke="white" stroke-width="0.5"/>
<path d="M51.814 44.043V44.3312H38.0449V44.043H42.4233V26.4714C42.4233 23.5907 42.3081 17.8295 37.8721 17.8295C32.5144 17.8295 30.152 25.6648 30.152 30.1008V44.0427H34.5879V44.331H20.8191V44.0427H25.1978V17.9447H20.8191V17.6567H30.1523V27.0474C30.901 22.6115 33.3209 17.1382 39.0822 17.1382C43.5184 17.1382 47.4359 19.3275 47.4359 27.2779V44.043H51.814Z" fill="white"/>
<path d="M51.814 44.043V44.3312H38.0449V44.043H42.4233V26.4714C42.4233 23.5907 42.3081 17.8295 37.8721 17.8295C32.5144 17.8295 30.152 25.6648 30.152 30.1008V44.0427H34.5879V44.331H20.8191V44.0427H25.1978V17.9447H20.8191V17.6567H30.1523V27.0474C30.901 22.6115 33.3209 17.1382 39.0822 17.1382C43.5184 17.1382 47.4358 19.3275 47.4358 27.2779V44.043H51.814Z" stroke="white" stroke-width="0.5"/>
<path d="M78.5459 40.9318C77.9696 42.7179 76.6445 44.907 73.4184 44.907C70.3647 44.907 68.4636 43.3514 68.4636 39.3187V38.4544C67.6571 41.7958 65.0645 44.907 60.7438 44.907C56.1923 44.907 51.2379 43.4666 51.2379 38.0511C51.2379 32.1749 56.9414 30.9073 61.8958 30.1008C63.9122 29.8128 66.6775 29.5248 68.4636 29.2942V28.9485C68.4636 23.0722 68.8669 17.3687 62.9329 17.3687C59.5915 17.3687 57.4021 18.5785 57.4021 20.8254C57.4021 21.8621 57.8054 22.3232 57.8054 23.6482C57.8054 25.0885 56.9989 25.9528 55.616 25.9528C54.2912 25.9528 53.4269 24.8583 53.4269 23.4755C53.4269 19.5003 58.4392 17.1382 62.9326 17.1382C70.3644 17.1382 73.4181 20.9981 73.4181 28.0844V39.2609C73.4181 41.8533 73.2451 44.0427 75.1464 44.0427C76.702 44.0427 77.7965 42.4296 78.3151 40.8165L78.5459 40.9318ZM68.4639 35.977V29.582C66.7931 29.8125 64.2007 30.043 62.1266 30.3885C57.1144 31.31 56.4809 35.5735 56.4809 37.9931C56.4809 41.6803 57.9787 44.5609 61.2626 44.5609C65.5833 44.5612 68.4639 40.4707 68.4639 35.977Z" fill="white"/>
<path d="M78.5459 40.9318C77.9696 42.7179 76.6445 44.907 73.4184 44.907C70.3647 44.907 68.4636 43.3514 68.4636 39.3187V38.4544C67.6571 41.7958 65.0645 44.907 60.7438 44.907C56.1923 44.907 51.2379 43.4666 51.2379 38.0511C51.2379 32.1749 56.9414 30.9073 61.8958 30.1008C63.9122 29.8128 66.6775 29.5248 68.4636 29.2942V28.9485C68.4636 23.0722 68.8669 17.3687 62.9329 17.3687C59.5915 17.3687 57.4021 18.5785 57.4021 20.8254C57.4021 21.8621 57.8054 22.3232 57.8054 23.6482C57.8054 25.0885 56.9989 25.9528 55.616 25.9528C54.2912 25.9528 53.4269 24.8583 53.4269 23.4755C53.4269 19.5003 58.4392 17.1382 62.9326 17.1382C70.3644 17.1382 73.4181 20.9981 73.4181 28.0844V39.2609C73.4181 41.8533 73.2451 44.0427 75.1464 44.0427C76.702 44.0427 77.7965 42.4296 78.3151 40.8165L78.5459 40.9318ZM68.4639 35.977V29.582C66.7931 29.8125 64.2007 30.043 62.1266 30.3885C57.1144 31.31 56.4809 35.5735 56.4809 37.9931C56.4809 41.6803 57.9787 44.5609 61.2626 44.5609C65.5833 44.5612 68.4639 40.4707 68.4639 35.977Z" stroke="white" stroke-width="0.5"/>
<path d="M102.8 47.4414C102.8 54.2397 95.7719 58.6757 88.8011 58.6757C81.8875 58.6757 76.8178 55.6223 76.8178 51.5896C76.8178 47.9602 80.8505 45.8861 84.0191 45.3673C79.929 44.7338 78.2581 43.1782 78.2581 40.8161C78.2581 37.1867 82.4061 35.9769 84.4227 35.5736C81.0235 34.0755 78.5461 30.9644 78.5461 26.8742C78.5461 20.8827 83.7314 17.1378 89.3194 17.1378C91.2207 17.1378 93.064 17.541 94.6774 18.3476C95.3109 15.6977 97.2122 13.2778 100.15 13.2778C101.533 13.2778 102.57 13.9116 102.57 15.1214C102.57 15.9854 101.936 16.6767 100.957 16.6767C99.4013 16.6767 99.1708 15.5247 97.7308 15.5247C96.521 15.5247 95.3687 16.6192 94.9654 18.4628C98.0188 20.0759 100.15 23.0143 100.15 26.8742C100.15 32.8082 94.9654 36.5529 89.3194 36.5529C87.7638 36.5529 86.1507 36.2646 84.7682 35.6889C83.0973 35.9769 79.6407 37.0137 79.6407 39.0303C79.6407 41.0469 82.6366 40.8164 90.4139 40.8164C98.7678 40.8161 102.8 42.3139 102.8 47.4414ZM100.15 49.861C100.15 45.1368 94.6196 45.6553 89.0888 45.6553C87.4758 45.6553 86.0355 45.5975 84.8257 45.4248C82.9821 45.7128 80.1014 46.9229 80.1014 51.1858C80.1014 55.5645 83.2701 58.3874 88.8586 58.3874C94.3319 58.3874 100.15 55.4492 100.15 49.861ZM83.6736 26.8739C83.6736 30.7916 84.5376 36.3224 89.3194 36.3224C94.1589 36.3224 95.0229 30.7916 95.0229 26.8739C95.0229 22.9562 94.1589 17.368 89.3194 17.368C84.5376 17.368 83.6736 22.9565 83.6736 26.8739Z" fill="white"/>
<path d="M102.8 47.4414C102.8 54.2397 95.7719 58.6757 88.8011 58.6757C81.8875 58.6757 76.8178 55.6223 76.8178 51.5896C76.8178 47.9602 80.8505 45.8861 84.0191 45.3673C79.929 44.7338 78.2581 43.1782 78.2581 40.8161C78.2581 37.1867 82.4061 35.9769 84.4227 35.5736C81.0235 34.0755 78.5461 30.9644 78.5461 26.8742C78.5461 20.8827 83.7314 17.1378 89.3194 17.1378C91.2207 17.1378 93.064 17.541 94.6774 18.3476C95.3109 15.6977 97.2122 13.2778 100.15 13.2778C101.533 13.2778 102.57 13.9116 102.57 15.1214C102.57 15.9854 101.936 16.6767 100.957 16.6767C99.4013 16.6767 99.1708 15.5247 97.7308 15.5247C96.521 15.5247 95.3687 16.6192 94.9654 18.4628C98.0188 20.0759 100.15 23.0143 100.15 26.8742C100.15 32.8082 94.9654 36.5529 89.3194 36.5529C87.7638 36.5529 86.1507 36.2646 84.7682 35.6889C83.0973 35.9769 79.6407 37.0137 79.6407 39.0303C79.6407 41.0469 82.6366 40.8164 90.4139 40.8164C98.7678 40.8161 102.8 42.3139 102.8 47.4414ZM100.15 49.861C100.15 45.1368 94.6196 45.6553 89.0888 45.6553C87.4758 45.6553 86.0355 45.5975 84.8257 45.4248C82.9821 45.7128 80.1014 46.9229 80.1014 51.1858C80.1014 55.5645 83.2701 58.3874 88.8586 58.3874C94.3319 58.3874 100.15 55.4492 100.15 49.861ZM83.6736 26.8739C83.6736 30.7916 84.5376 36.3224 89.3194 36.3224C94.1589 36.3224 95.0229 30.7916 95.0229 26.8739C95.0229 22.9562 94.1589 17.368 89.3194 17.368C84.5376 17.368 83.6736 22.9565 83.6736 26.8739Z" stroke="white" stroke-width="0.5"/>
<path d="M117.823 28.5181C117.777 27.6515 117.721 26.6101 117.731 25.8356H117.703C117.491 26.5639 117.233 27.3383 116.919 28.1954L115.823 31.2098H115.214L114.209 28.2509C113.914 27.375 113.666 26.5731 113.491 25.8356H113.472C113.454 26.6101 113.407 27.6517 113.352 28.5825L113.186 31.2465H112.421L112.855 25.0337H113.878L114.938 28.0388C115.196 28.8038 115.408 29.4861 115.565 30.1311H115.593C115.749 29.5046 115.971 28.8223 116.247 28.0388L117.353 25.0337H118.377L118.764 31.2465H117.98L117.823 28.5181Z" fill="white"/>
<path d="M122.533 31.2465V28.6102L120.57 25.0337H121.482L122.358 26.7482C122.598 27.2184 122.782 27.5963 122.976 28.0296H122.994C123.169 27.624 123.381 27.2184 123.621 26.7482L124.515 25.0337H125.427L123.344 28.601V31.2465H122.533Z" fill="white"/>
<path d="M127.052 35.1621H110.74V35.5062H127.052V35.1621Z" fill="white"/>
<path d="M36.8719 54.1147H37.6452V57.8473H39.9773V58.551H36.8719V54.1147Z" fill="white"/>
<path d="M45.8202 56.6305C45.8202 56.9601 45.7746 57.2496 45.6839 57.4986C45.5932 57.7479 45.4655 57.9559 45.3006 58.1229C45.1359 58.2898 44.9363 58.4143 44.7017 58.4966C44.4672 58.5793 44.204 58.6203 43.9128 58.6203C43.6254 58.6203 43.3654 58.579 43.1334 58.4966C42.9009 58.4143 42.7024 58.2907 42.5375 58.126C42.3725 57.9614 42.246 57.7574 42.1573 57.5145C42.0684 57.2715 42.0242 56.9896 42.0242 56.6684V54.1147H42.7975V56.6369C42.7975 57.0508 42.8971 57.3654 43.097 57.5812C43.2969 57.797 43.5728 57.9045 43.9255 57.9045C44.2739 57.9045 44.548 57.801 44.7479 57.5939C44.9476 57.3871 45.0475 57.0786 45.0475 56.6687V54.115H45.8208V56.6305H45.8202Z" fill="white"/>
<path d="M51.1496 58.5507L49.9837 56.8712L48.8112 58.5507H47.9177L49.5337 56.2946L47.981 54.1147H48.8999L50.0028 55.7053L51.1118 54.1147H52.0053L50.4589 56.2819L52.0685 58.5507H51.1496Z" fill="white"/>
<path d="M57.9621 56.6305C57.9621 56.9601 57.9165 57.2496 57.8258 57.4986C57.7348 57.7479 57.6071 57.9559 57.4424 58.1229C57.2778 58.2898 57.0781 58.4143 56.8436 58.4966C56.609 58.5793 56.3461 58.6203 56.0547 58.6203C55.7672 58.6203 55.5073 58.579 55.2753 58.4966C55.0427 58.4143 54.8443 58.2907 54.6793 58.126C54.5144 57.9614 54.3879 57.7574 54.2992 57.5145C54.2102 57.2715 54.166 56.9896 54.166 56.6684V54.1147H54.9393V56.6369C54.9393 57.0508 55.039 57.3654 55.2389 57.5812C55.4388 57.797 55.7147 57.9045 56.0674 57.9045C56.4158 57.9045 56.6899 57.801 56.8895 57.5939C57.0891 57.3871 57.1891 57.0786 57.1891 56.6687V54.115H57.9624V56.6305H57.9621Z" fill="white"/>
<path d="M63.3046 58.5507L62.2112 57.0043H61.2322V58.5507H60.4589V54.1147H62.4363C62.6896 54.1147 62.919 54.1474 63.1238 54.213C63.3286 54.2785 63.5019 54.3713 63.6435 54.4917C63.785 54.6122 63.8939 54.7601 63.9699 54.9354C64.0462 55.1108 64.084 55.3061 64.084 55.5216C64.084 55.7076 64.0574 55.8734 64.0048 56.019C63.952 56.1649 63.8792 56.294 63.7862 56.4058C63.6931 56.5176 63.5822 56.6126 63.4534 56.6909C63.3245 56.7692 63.1821 56.8293 63.0259 56.8715L64.2235 58.551H63.3046V58.5507ZM63.0501 55.0059C62.8889 54.8808 62.6622 54.8182 62.3701 54.8182H61.2322V56.3136H62.3765C62.6561 56.3136 62.8785 56.2458 63.044 56.11C63.2093 55.9739 63.2919 55.7916 63.2919 55.5626C63.2919 55.3167 63.211 55.131 63.0501 55.0059Z" fill="white"/>
<path d="M68.3996 58.551H67.6138V56.8018L65.852 54.1147H66.7709L68.013 56.0794L69.2679 54.1147H70.1614L68.3996 56.7825V58.551Z" fill="white"/>
<path d="M108.59 54.4195C108.851 54.6226 108.982 54.8996 108.982 55.2512C108.982 55.3866 108.964 55.5071 108.929 55.6128C108.893 55.7186 108.847 55.8107 108.79 55.889C108.734 55.9673 108.666 56.036 108.589 56.0952C108.511 56.1545 108.433 56.2053 108.353 56.2475C108.483 56.294 108.602 56.3477 108.709 56.409C108.816 56.4702 108.909 56.5427 108.987 56.6274C109.064 56.7117 109.124 56.8119 109.166 56.9278C109.208 57.0439 109.229 57.1777 109.229 57.3296C109.229 57.5278 109.19 57.7028 109.112 57.8548C109.034 58.0064 108.924 58.1341 108.78 58.2375C108.637 58.3407 108.464 58.4189 108.261 58.4718C108.059 58.5244 107.835 58.5507 107.591 58.5507H105.541V54.1147H107.527C107.974 54.1147 108.329 54.2161 108.59 54.4195ZM107.982 55.8408C108.133 55.7408 108.209 55.5868 108.209 55.3788C108.209 55.1963 108.143 55.055 108.01 54.9551C107.878 54.8554 107.685 54.8054 107.433 54.8054H106.315V55.9907H107.376C107.628 55.9907 107.83 55.9404 107.982 55.8408ZM108.229 57.7049C108.38 57.6014 108.456 57.4483 108.456 57.2453C108.456 57.0552 108.381 56.9073 108.232 56.8018C108.083 56.6961 107.854 56.6432 107.547 56.6432H106.314V57.86H107.603C107.869 57.86 108.077 57.8083 108.229 57.7049Z" fill="white"/>
<path d="M115.788 58.5507H114.965L114.514 57.4796H112.417L111.96 58.5507H111.162L113.114 54.083H113.836L115.788 58.5507ZM113.462 55.0146L112.702 56.7889H114.229L113.462 55.0146Z" fill="white"/>
<path d="M121.286 58.2023C121.153 58.2866 121.009 58.3606 120.855 58.4242C120.701 58.4877 120.535 58.5374 120.357 58.5732C120.18 58.609 119.994 58.6272 119.8 58.6272C119.453 58.6272 119.138 58.5692 118.856 58.4528C118.572 58.3366 118.33 58.176 118.13 57.9712C117.929 57.7664 117.774 57.5243 117.664 57.2455C117.554 56.9668 117.499 56.6646 117.499 56.3394C117.499 56.0268 117.555 55.7313 117.667 55.4522C117.779 55.1732 117.936 54.9294 118.139 54.7202C118.342 54.5111 118.584 54.3456 118.865 54.2228C119.146 54.1003 119.453 54.0391 119.787 54.0391C119.981 54.0391 120.158 54.0526 120.316 54.0804C120.475 54.1078 120.621 54.1468 120.757 54.1977C120.892 54.2482 121.019 54.3106 121.14 54.3846C121.26 54.4585 121.377 54.5443 121.492 54.6414L120.997 55.2307C120.913 55.1587 120.826 55.0932 120.738 55.0342C120.649 54.975 120.556 54.9256 120.459 54.8852C120.361 54.8453 120.255 54.8132 120.139 54.7901C120.023 54.767 119.895 54.7552 119.755 54.7552C119.553 54.7552 119.364 54.7968 119.188 54.8791C119.013 54.9617 118.861 55.075 118.732 55.2191C118.603 55.363 118.501 55.5302 118.427 55.7206C118.354 55.911 118.317 56.1143 118.317 56.3301C118.317 56.5589 118.353 56.7704 118.425 56.9651C118.497 57.1598 118.599 57.3279 118.732 57.47C118.865 57.6118 119.023 57.7228 119.207 57.8034C119.391 57.8837 119.597 57.9238 119.825 57.9238C120.036 57.9238 120.234 57.8932 120.417 57.8317C120.601 57.7699 120.76 57.6884 120.896 57.5864V56.7516H119.761V56.0736H121.65V57.9368C121.54 58.029 121.419 58.1177 121.286 58.2023Z" fill="white"/>
<path d="M124.781 55.5022C124.811 55.5657 124.865 55.6247 124.943 55.6795C125.022 55.7344 125.13 55.7853 125.267 55.8315C125.405 55.878 125.579 55.9265 125.792 55.9774C126.024 56.0366 126.231 56.1019 126.411 56.1738C126.591 56.2457 126.74 56.3333 126.859 56.4367C126.978 56.5404 127.068 56.6606 127.129 56.7978C127.191 56.935 127.221 57.0968 127.221 57.2825C127.221 57.494 127.182 57.6817 127.105 57.8464C127.027 58.0113 126.92 58.1506 126.781 58.2647C126.643 58.3788 126.477 58.4654 126.283 58.5247C126.088 58.5839 125.875 58.6133 125.643 58.6133C125.301 58.6133 124.974 58.5553 124.661 58.4391C124.348 58.3227 124.059 58.1445 123.793 57.9036L124.262 57.3458C124.477 57.5318 124.695 57.6745 124.914 57.7736C125.134 57.8727 125.384 57.9223 125.662 57.9223C125.903 57.9223 126.094 57.8718 126.236 57.7704C126.377 57.669 126.448 57.5315 126.448 57.3585C126.448 57.2785 126.434 57.2065 126.407 57.143C126.379 57.0794 126.328 57.0217 126.254 56.9685C126.18 56.9156 126.078 56.8662 125.949 56.8197C125.82 56.7732 125.651 56.7247 125.444 56.6738C125.207 56.619 124.996 56.5577 124.812 56.4901C124.628 56.4225 124.473 56.3379 124.348 56.2368C124.223 56.1351 124.128 56.0129 124.062 55.8693C123.997 55.7258 123.964 55.5504 123.964 55.3433C123.964 55.1492 124.001 54.9727 124.077 54.8141C124.152 54.6558 124.256 54.5194 124.388 54.4053C124.52 54.2912 124.679 54.2037 124.864 54.1422C125.05 54.0812 125.252 54.0503 125.472 54.0503C125.798 54.0503 126.09 54.098 126.35 54.193C126.61 54.288 126.854 54.4267 127.082 54.6081L126.664 55.1977C126.461 55.0498 126.26 54.9369 126.062 54.8586C125.863 54.7806 125.662 54.7413 125.46 54.7413C125.231 54.7413 125.054 54.7933 124.927 54.8967C124.8 55.0001 124.737 55.1258 124.737 55.2737C124.737 55.3629 124.752 55.4386 124.781 55.5022Z" fill="white"/>
<path d="M135.942 54.4195C136.203 54.6226 136.333 54.8996 136.333 55.2512C136.333 55.3866 136.315 55.5071 136.28 55.6128C136.244 55.7186 136.198 55.8107 136.142 55.889C136.085 55.9673 136.018 56.036 135.94 56.0952C135.863 56.1545 135.784 56.2053 135.705 56.2475C135.835 56.294 135.954 56.3477 136.061 56.409C136.168 56.4702 136.26 56.5427 136.338 56.6274C136.416 56.7117 136.475 56.8119 136.517 56.9278C136.56 57.0439 136.581 57.1777 136.581 57.3296C136.581 57.5278 136.542 57.7028 136.464 57.8548C136.386 58.0067 136.275 58.1341 136.132 58.2375C135.988 58.3407 135.815 58.4189 135.613 58.4718C135.41 58.5244 135.187 58.5507 134.942 58.5507H132.893V54.1147H134.879C135.326 54.1147 135.68 54.2161 135.942 54.4195ZM135.333 55.8408C135.484 55.7408 135.56 55.5868 135.56 55.3788C135.56 55.1963 135.494 55.055 135.362 54.9551C135.229 54.8554 135.036 54.8054 134.784 54.8054H133.666V55.9907H134.727C134.979 55.9907 135.182 55.9404 135.333 55.8408ZM135.58 57.7049C135.732 57.6014 135.808 57.4483 135.808 57.2453C135.808 57.0552 135.733 56.9073 135.583 56.8018C135.434 56.6961 135.205 56.6432 134.898 56.6432H133.666V57.86H134.955C135.22 57.86 135.428 57.8083 135.58 57.7049Z" fill="white"/>
<path d="M143.165 57.2133C143.051 57.492 142.891 57.7361 142.684 57.9453C142.477 58.1544 142.232 58.3202 141.948 58.4427C141.665 58.5652 141.353 58.6264 141.011 58.6264C140.668 58.6264 140.356 58.5661 140.073 58.4459C139.79 58.3254 139.547 58.1616 139.344 57.9548C139.141 57.7477 138.983 57.5048 138.869 57.226C138.754 56.9472 138.698 56.6517 138.698 56.3389C138.698 56.0263 138.754 55.7308 138.869 55.4517C138.983 55.173 139.143 54.9289 139.35 54.7197C139.557 54.5106 139.802 54.3451 140.085 54.2223C140.368 54.0998 140.681 54.0386 141.023 54.0386C141.365 54.0386 141.678 54.0987 141.961 54.2191C142.244 54.3396 142.487 54.5034 142.69 54.7102C142.892 54.917 143.051 55.16 143.165 55.4387C143.279 55.7175 143.337 56.0133 143.337 56.3262C143.337 56.639 143.279 56.9345 143.165 57.2133ZM142.408 55.7273C142.334 55.5352 142.23 55.3671 142.098 55.2235C141.964 55.0797 141.805 54.9658 141.619 54.8809C141.433 54.7966 141.23 54.7544 141.011 54.7544C140.791 54.7544 140.59 54.7957 140.406 54.878C140.222 54.9604 140.064 55.0724 139.933 55.214C139.802 55.3555 139.7 55.5222 139.626 55.7143C139.552 55.9067 139.515 56.1107 139.515 56.3262C139.515 56.5417 139.552 56.7453 139.626 56.9377C139.7 57.1298 139.804 57.2979 139.937 57.4415C140.07 57.5851 140.229 57.6992 140.415 57.7838C140.601 57.8684 140.804 57.9106 141.023 57.9106C141.242 57.9106 141.445 57.8693 141.628 57.787C141.812 57.7046 141.97 57.5926 142.1 57.451C142.232 57.3095 142.334 57.1428 142.408 56.9504C142.482 56.7583 142.519 56.5544 142.519 56.3389C142.518 56.1234 142.481 55.9197 142.408 55.7273Z" fill="white"/>
<path d="M148.552 58.5507L147.459 57.0043H146.48V58.5507H145.707V54.1147H147.684C147.937 54.1147 148.166 54.1474 148.371 54.213C148.576 54.2785 148.75 54.3713 148.891 54.4917C149.033 54.6122 149.141 54.7601 149.218 54.9354C149.294 55.1108 149.331 55.3061 149.331 55.5216C149.331 55.7076 149.305 55.8734 149.253 56.019C149.199 56.1649 149.127 56.294 149.034 56.4058C148.941 56.5176 148.83 56.6126 148.701 56.6909C148.573 56.7692 148.43 56.8293 148.274 56.8715L149.471 58.551H148.552V58.5507ZM148.298 55.0059C148.136 54.8808 147.91 54.8182 147.617 54.8182H146.48V56.3136H147.624C147.903 56.3136 148.126 56.2458 148.291 56.11C148.456 55.9739 148.539 55.7916 148.539 55.5626C148.539 55.3167 148.459 55.131 148.298 55.0059Z" fill="white"/>
<path d="M154.559 58.5507L153.466 57.0043H152.487V58.5507H151.714V54.1147H153.691C153.945 54.1147 154.174 54.1474 154.379 54.213C154.584 54.2785 154.757 54.3713 154.899 54.4917C155.04 54.6122 155.149 54.7601 155.225 54.9354C155.301 55.1108 155.339 55.3061 155.339 55.5216C155.339 55.7076 155.313 55.8734 155.26 56.019C155.207 56.1649 155.134 56.294 155.042 56.4058C154.949 56.5176 154.838 56.6126 154.709 56.6909C154.58 56.7692 154.437 56.8293 154.281 56.8715L155.479 58.551H154.559V58.5507ZM154.305 55.0059C154.144 54.8808 153.917 54.8182 153.625 54.8182H152.488V56.3136H153.632C153.912 56.3136 154.134 56.2458 154.299 56.11C154.464 55.9739 154.547 55.7916 154.547 55.5626C154.547 55.3167 154.466 55.131 154.305 55.0059Z" fill="white"/>
<path d="M161.992 57.2133C161.879 57.492 161.718 57.7361 161.511 57.9453C161.304 58.1544 161.059 58.3202 160.776 58.4427C160.493 58.5652 160.18 58.6264 159.838 58.6264C159.496 58.6264 159.183 58.5661 158.9 58.4459C158.617 58.3254 158.374 58.1616 158.172 57.9548C157.968 57.7477 157.81 57.5048 157.696 57.226C157.582 56.9472 157.525 56.6517 157.525 56.3389C157.525 56.0263 157.582 55.7308 157.696 55.4517C157.81 55.173 157.971 54.9289 158.178 54.7197C158.385 54.5106 158.629 54.3451 158.913 54.2223C159.196 54.0998 159.509 54.0386 159.851 54.0386C160.193 54.0386 160.506 54.0987 160.788 54.2191C161.072 54.3396 161.314 54.5034 161.517 54.7102C161.72 54.917 161.879 55.16 161.992 55.4387C162.107 55.7175 162.164 56.0133 162.164 56.3262C162.164 56.639 162.107 56.9345 161.992 57.2133ZM161.235 55.7273C161.161 55.5352 161.058 55.3671 160.925 55.2235C160.792 55.0797 160.632 54.9658 160.447 54.8809C160.26 54.7966 160.058 54.7544 159.838 54.7544C159.619 54.7544 159.417 54.7957 159.233 54.878C159.049 54.9604 158.892 55.0724 158.761 55.214C158.63 55.3555 158.527 55.5222 158.453 55.7143C158.38 55.9067 158.343 56.1107 158.343 56.3262C158.343 56.5417 158.38 56.7453 158.453 56.9377C158.527 57.1298 158.631 57.2979 158.764 57.4415C158.897 57.5851 159.057 57.6992 159.242 57.7838C159.428 57.8684 159.631 57.9106 159.851 57.9106C160.07 57.9106 160.272 57.8693 160.456 57.787C160.64 57.7046 160.797 57.5926 160.928 57.451C161.059 57.3095 161.162 57.1428 161.235 56.9504C161.309 56.7583 161.346 56.5544 161.346 56.3389C161.346 56.1234 161.309 55.9197 161.235 55.7273Z" fill="white"/>
<path d="M166.942 54.1021H167.601L168.691 57.4039L169.749 54.1148H170.567L169.021 58.5825H168.349L167.259 55.3948L166.169 58.5825H165.497L163.951 54.1148H164.794L165.852 57.4039L166.942 54.1021Z" fill="white"/>
<path d="M176.068 54.8184H173.559V55.9591H175.783V56.6625H173.559V57.8475H176.1V58.5512H172.785V54.1152H176.068L176.068 54.8184Z" fill="white"/>
<path d="M182.297 57.2039C182.183 57.4764 182.021 57.7121 181.812 57.9105C181.603 58.1093 181.353 58.2653 181.064 58.3794C180.775 58.4935 180.457 58.5507 180.11 58.5507H178.456V54.1147H180.11C180.457 54.1147 180.775 54.1708 181.064 54.2826C181.353 54.3947 181.603 54.5498 181.812 54.7482C182.021 54.947 182.183 55.1815 182.297 55.4519C182.411 55.7223 182.468 56.0138 182.468 56.3264C182.468 56.6389 182.411 56.9315 182.297 57.2039ZM181.539 55.7313C181.465 55.5467 181.362 55.3866 181.228 55.2509C181.095 55.1151 180.933 55.0091 180.742 54.9325C180.552 54.8563 180.339 54.8182 180.107 54.8182H179.23V57.8473H180.107C180.34 57.8473 180.552 57.8103 180.742 57.736C180.933 57.6618 181.095 57.5578 181.228 57.4241C181.362 57.2903 181.465 57.1311 181.539 56.9468C181.613 56.7623 181.651 56.5598 181.651 56.3391C181.651 56.1184 181.613 55.9159 181.539 55.7313Z" fill="white"/>
<mask id="mask0_1_2" style="mask-type:luminance" maskUnits="userSpaceOnUse" x="167" y="17" width="28" height="29">
<path d="M177.259 45.1753C181.58 45.1753 184.46 41.0831 184.46 36.5897V30.1952C182.79 30.4252 180.197 30.656 178.123 31.0015C173.11 31.9236 172.477 36.1865 172.477 38.6063C172.477 42.2935 173.974 45.1753 177.259 45.1753ZM194.313 41.4292L194.544 41.5442C193.968 43.3314 192.642 45.5205 189.416 45.5205C186.361 45.5205 184.46 43.9649 184.46 39.9311V39.0671C183.654 42.4094 181.061 45.5205 176.74 45.5205C172.189 45.5205 167.233 44.0802 167.233 38.6635C167.233 32.7876 172.938 31.52 177.892 30.7135L184.46 29.9072V29.5612C184.46 23.6849 184.863 17.9805 178.93 17.9805C175.588 17.9805 173.398 19.19 173.398 21.4372C173.398 22.4742 173.802 22.935 173.802 24.2609C173.802 25.7012 172.995 26.5655 171.612 26.5655C170.287 26.5655 169.422 25.4713 169.422 24.0885C169.422 20.1124 174.435 17.75 178.93 17.75C186.361 17.75 189.415 21.6102 189.415 28.6971V39.8742C189.415 42.4677 189.242 44.6568 191.144 44.6568C192.699 44.6565 193.794 43.0437 194.313 41.4292Z" fill="white"/>
</mask>
<g mask="url(#mask0_1_2)">
<mask id="mask1_1_2" style="mask-type:luminance" maskUnits="userSpaceOnUse" x="-575" y="-62" width="913" height="706">
<path d="M337.907 -61.3477H-574.657V643.816H337.907V-61.3477Z" fill="white"/>
</mask>
<g mask="url(#mask1_1_2)">
<mask id="mask2_1_2" style="mask-type:luminance" maskUnits="userSpaceOnUse" x="-575" y="-62" width="913" height="706">
<path d="M337.907 -61.3643H-574.658V643.8H337.907V-61.3643Z" fill="white"/>
</mask>
<g mask="url(#mask2_1_2)">
<path d="M195.694 16.5977H166.08V46.6725H195.694V16.5977Z" fill="white"/>
</g>
</g>
</g>
<path d="M154.127 14.1354C162.135 14.1354 166.687 20.6455 166.687 28.0197C166.687 35.394 162.135 41.9041 154.127 41.9041C150.21 41.9041 147.099 39.542 145.831 36.3158L141.51 41.9041H140.934V1.28806H136.556V1H145.889V19.5509C147.156 16.4399 150.267 14.1354 154.127 14.1354ZM153.551 41.5008C160.407 41.5008 161.386 33.6081 161.386 28.0197C161.386 22.4314 160.407 14.5387 153.551 14.5387C149.288 14.5387 145.601 18.2258 145.601 22.8347V33.1472C145.601 37.8713 149.288 41.5008 153.551 41.5008Z" fill="white"/>
<path d="M166.687 28.1452C166.687 35.5196 162.135 42.0296 154.127 42.0296C150.209 42.0296 147.099 39.6675 145.831 36.4414L141.51 42.0296H140.934V1.4135H136.556V1.12549H145.889V19.6763C147.156 16.5652 150.267 14.2608 154.128 14.2608C162.136 14.2611 166.687 20.7712 166.687 28.1452ZM161.387 28.1452C161.387 22.5567 160.407 14.6641 153.551 14.6641C149.288 14.6641 145.601 18.3513 145.601 22.9602V33.2727C145.601 37.997 149.289 41.6264 153.551 41.6264C160.407 41.6264 161.387 33.7338 161.387 28.1452Z" stroke="white" stroke-width="0.5"/>
<path d="M217.73 48.031C217.73 54.829 210.701 59.2649 203.731 59.2649C196.817 59.2649 191.747 56.2116 191.747 52.1789C191.747 48.5495 195.78 46.4754 198.949 45.9569C194.859 45.3231 193.188 43.7675 193.188 41.4057C193.188 37.7763 197.336 36.5665 199.352 36.1632C195.953 34.6651 193.476 31.5542 193.476 27.4638C193.476 21.4723 198.661 17.7276 204.249 17.7276C206.15 17.7276 207.994 18.1309 209.607 18.9374C210.241 16.2873 212.142 13.8677 215.08 13.8677C216.463 13.8677 217.5 14.5015 217.5 15.7113C217.5 16.5756 216.866 17.2668 215.887 17.2668C214.331 17.2668 214.101 16.1145 212.66 16.1145C211.451 16.1145 210.298 17.2094 209.895 19.0527C212.948 20.6657 215.08 23.6039 215.08 27.4638C215.08 33.3978 209.895 37.1425 204.249 37.1425C202.694 37.1425 201.081 36.8545 199.698 36.2782C198.027 36.5665 194.571 37.6032 194.571 39.6196C194.571 41.6359 197.566 41.4054 205.344 41.4054C213.697 41.4057 217.73 42.9035 217.73 48.031ZM215.08 50.4506C215.08 45.7263 209.549 46.2449 204.019 46.2449C202.405 46.2449 200.965 46.1874 199.755 46.0143C197.912 46.3023 195.031 47.5124 195.031 51.7753C195.031 56.1538 198.2 58.9766 203.788 58.9766C209.261 58.9769 215.08 56.0388 215.08 50.4506ZM198.603 27.4638C198.603 31.3815 199.467 36.9119 204.249 36.9119C209.088 36.9119 209.952 31.3812 209.952 27.4638C209.952 23.5464 209.088 17.9581 204.249 17.9581C199.467 17.9581 198.603 23.5464 198.603 27.4638Z" fill="white"/>
<path d="M217.73 48.0308C217.73 54.8291 210.702 59.265 203.731 59.265C196.817 59.265 191.747 56.2116 191.747 52.179C191.747 48.5496 195.78 46.4752 198.949 45.9566C194.859 45.3231 193.188 43.7676 193.188 41.4055C193.188 37.7761 197.336 36.5663 199.353 36.1627C195.953 34.6649 193.476 31.5537 193.476 27.4633C193.476 21.4718 198.661 17.7271 204.249 17.7271C206.151 17.7271 207.994 18.1304 209.607 18.9369C210.241 16.2868 212.142 13.8672 215.08 13.8672C216.463 13.8672 217.5 14.5007 217.5 15.7108C217.5 16.5748 216.866 17.2664 215.887 17.2664C214.331 17.2664 214.101 16.1143 212.66 16.1143C211.451 16.1143 210.299 17.2089 209.895 19.0525C212.949 20.6655 215.08 23.6039 215.08 27.4636C215.08 33.3976 209.895 37.1423 204.249 37.1423C202.694 37.1423 201.081 36.8543 199.698 36.2782C198.027 36.5665 194.57 37.6033 194.57 39.6196C194.57 41.636 197.567 41.4057 205.344 41.4057C213.697 41.4057 217.73 42.9036 217.73 48.0308ZM215.08 50.4506C215.08 45.7264 209.549 46.2449 204.019 46.2449C202.405 46.2449 200.965 46.1872 199.755 46.0144C197.911 46.3024 195.031 47.5125 195.031 51.7754C195.031 56.1539 198.2 58.977 203.788 58.977C209.261 58.977 215.08 56.0392 215.08 50.4506ZM198.603 27.4636C198.603 31.3813 199.467 36.912 204.249 36.912C209.088 36.912 209.953 31.3813 209.953 27.4636C209.953 23.5462 209.088 17.9579 204.249 17.9579C199.467 17.9576 198.603 23.5462 198.603 27.4636Z" stroke="white" stroke-width="0.5"/>
</svg>
