<svg width="218" height="60" viewBox="0 0 218 60" fill="none" xmlns="http://www.w3.org/2000/svg">
<path d="M21.3947 36.8399C21.3947 41.3914 17.5348 44.9055 11.0248 44.9055C7.85611 44.9055 4.68746 42.7739 2.90136 42.7739C1.80682 42.7739 1.46104 43.7532 1.23052 44.6175H1V34.9963H1.23052C2.32535 39.3173 5.49371 44.6175 11.0245 44.6175C15.2302 44.6175 17.6498 42.6587 17.6498 39.1445C17.6498 35.5726 13.5596 34.8813 8.95066 32.8647C3.24715 30.2723 1.74904 28.0255 1.74904 24.2806C1.74904 20.1326 5.26348 17.1367 10.4485 17.1367C13.7899 17.1367 15.576 18.9803 17.0741 18.9803C18.0533 18.9803 18.2839 18.2887 18.5719 17.6552H18.8024V25.3176H18.5719C17.477 20.9392 14.5967 17.3672 10.4485 17.3672C6.47328 17.3672 4.9177 19.7868 4.9177 22.0915C4.9177 24.5111 5.89726 25.7209 11.428 27.8528C19.6664 31.0789 21.3947 33.3257 21.3947 36.8399Z" fill="black"/>
<path d="M21.3947 36.8399C21.3947 41.3914 17.5348 44.9055 11.0248 44.9055C7.85611 44.9055 4.68746 42.7739 2.90136 42.7739C1.80682 42.7739 1.46104 43.7532 1.23052 44.6175H1V34.9963H1.23052C2.32535 39.3173 5.49371 44.6175 11.0245 44.6175C15.2302 44.6175 17.6498 42.6587 17.6498 39.1445C17.6498 35.5726 13.5596 34.8813 8.95066 32.8647C3.24715 30.2723 1.74904 28.0255 1.74904 24.2806C1.74904 20.1326 5.26348 17.1367 10.4485 17.1367C13.7899 17.1367 15.576 18.9803 17.0741 18.9803C18.0533 18.9803 18.2839 18.2887 18.5719 17.6552H18.8024V25.3176H18.5719C17.477 20.9392 14.5967 17.3672 10.4485 17.3672C6.47328 17.3672 4.9177 19.7868 4.9177 22.0915C4.9177 24.5111 5.89726 25.7209 11.428 27.8528C19.6664 31.0789 21.3947 33.3257 21.3947 36.8399Z" stroke="black" stroke-width="0.5"/>
<path d="M51.814 44.0415V44.3298H38.0449V44.0415H42.4233V26.4699C42.4233 23.5893 42.3081 17.828 37.8721 17.828C32.5144 17.828 30.152 25.6634 30.152 30.0993V44.0412H34.5879V44.3295H20.8191V44.0412H25.1978V17.9433H20.8191V17.6552H30.1523V27.0459C30.901 22.61 33.3209 17.1367 39.0822 17.1367C43.5184 17.1367 47.4359 19.3261 47.4359 27.2764V44.0415H51.814Z" fill="black"/>
<path d="M51.814 44.0415V44.3298H38.0449V44.0415H42.4233V26.4699C42.4233 23.5893 42.3081 17.828 37.8721 17.828C32.5144 17.828 30.152 25.6634 30.152 30.0993V44.0412H34.5879V44.3295H20.8191V44.0412H25.1978V17.9433H20.8191V17.6552H30.1523V27.0459C30.901 22.61 33.3209 17.1367 39.0822 17.1367C43.5184 17.1367 47.4358 19.3261 47.4358 27.2764V44.0415H51.814Z" stroke="black" stroke-width="0.5"/>
<path d="M78.5458 40.9303C77.9695 42.7164 76.6445 44.9055 73.4183 44.9055C70.3647 44.9055 68.4636 43.3499 68.4636 39.3173V38.4529C67.6571 41.7943 65.0644 44.9055 60.7437 44.9055C56.1923 44.9055 51.2378 43.4652 51.2378 38.0497C51.2378 32.1734 56.9413 30.9058 61.8958 30.0993C63.9121 29.8113 66.6775 29.5233 68.4636 29.2928V28.947C68.4636 23.0707 68.8668 17.3672 62.9328 17.3672C59.5914 17.3672 57.4021 18.577 57.4021 20.8239C57.4021 21.8607 57.8053 22.3217 57.8053 23.6468C57.8053 25.0871 56.9988 25.9514 55.616 25.9514C54.2912 25.9514 53.4269 24.8568 53.4269 23.474C53.4269 19.4988 58.4391 17.1367 62.9325 17.1367C70.3644 17.1367 73.418 20.9966 73.418 28.083V39.2595C73.418 41.8518 73.245 44.0412 75.1464 44.0412C76.7019 44.0412 77.7965 42.4281 78.315 40.8151L78.5458 40.9303ZM68.4639 35.9756V29.5805C66.793 29.811 64.2007 30.0415 62.1266 30.387C57.1143 31.3085 56.4808 35.572 56.4808 37.9916C56.4808 41.6788 57.9786 44.5594 61.2626 44.5594C65.5832 44.5597 68.4639 40.4693 68.4639 35.9756Z" fill="black"/>
<path d="M78.5458 40.9303C77.9695 42.7164 76.6445 44.9055 73.4183 44.9055C70.3647 44.9055 68.4636 43.3499 68.4636 39.3173V38.4529C67.6571 41.7943 65.0644 44.9055 60.7437 44.9055C56.1923 44.9055 51.2378 43.4652 51.2378 38.0497C51.2378 32.1734 56.9413 30.9058 61.8958 30.0993C63.9121 29.8113 66.6775 29.5233 68.4636 29.2928V28.947C68.4636 23.0707 68.8668 17.3672 62.9328 17.3672C59.5914 17.3672 57.4021 18.577 57.4021 20.8239C57.4021 21.8607 57.8053 22.3217 57.8053 23.6468C57.8053 25.0871 56.9988 25.9514 55.616 25.9514C54.2912 25.9514 53.4269 24.8568 53.4269 23.474C53.4269 19.4988 58.4391 17.1367 62.9325 17.1367C70.3644 17.1367 73.418 20.9966 73.418 28.083V39.2595C73.418 41.8518 73.245 44.0412 75.1464 44.0412C76.7019 44.0412 77.7965 42.4281 78.315 40.8151L78.5458 40.9303ZM68.4639 35.9756V29.5805C66.793 29.811 64.2007 30.0415 62.1266 30.387C57.1143 31.3085 56.4808 35.572 56.4808 37.9916C56.4808 41.6788 57.9786 44.5594 61.2626 44.5594C65.5832 44.5597 68.4639 40.4693 68.4639 35.9756Z" stroke="black" stroke-width="0.5"/>
<path d="M102.801 47.4409C102.801 54.2393 95.772 58.6752 88.8012 58.6752C81.8876 58.6752 76.8179 55.6218 76.8179 51.5891C76.8179 47.9597 80.8505 45.8856 84.0192 45.3668C79.929 44.7333 78.2582 43.1777 78.2582 40.8156C78.2582 37.1862 82.4061 35.9764 84.4227 35.5731C81.0236 34.075 78.5462 30.9639 78.5462 26.8737C78.5462 20.8822 83.7315 17.1373 89.3194 17.1373C91.2208 17.1373 93.0641 17.5405 94.6775 18.3471C95.3109 15.6972 97.2123 13.2773 100.15 13.2773C101.533 13.2773 102.57 13.9111 102.57 15.1209C102.57 15.9849 101.937 16.6762 100.957 16.6762C99.4014 16.6762 99.1709 15.5242 97.7308 15.5242C96.521 15.5242 95.3687 16.6187 94.9655 18.4623C98.0188 20.0754 100.15 23.0138 100.15 26.8737C100.15 32.8078 94.9654 36.5524 89.3194 36.5524C87.7638 36.5524 86.1508 36.2641 84.7682 35.6884C83.0974 35.9764 79.6407 37.0132 79.6407 39.0298C79.6407 41.0464 82.6366 40.8159 90.414 40.8159C98.7679 40.8156 102.801 42.3134 102.801 47.4409ZM100.15 49.8605C100.15 45.1363 94.6197 45.6548 89.0889 45.6548C87.4758 45.6548 86.0355 45.597 84.8257 45.4243C82.9821 45.7123 80.1015 46.9224 80.1015 51.1853C80.1015 55.564 83.2701 58.3869 88.8587 58.3869C94.332 58.3869 100.15 55.4488 100.15 49.8605ZM83.6737 26.8734C83.6737 30.7911 84.5377 36.3219 89.3194 36.3219C94.1589 36.3219 95.0229 30.7911 95.0229 26.8734C95.0229 22.9557 94.1589 17.3675 89.3194 17.3675C84.5377 17.3675 83.6737 22.956 83.6737 26.8734Z" fill="black"/>
<path d="M102.801 47.4409C102.801 54.2393 95.772 58.6752 88.8012 58.6752C81.8876 58.6752 76.8179 55.6218 76.8179 51.5891C76.8179 47.9597 80.8505 45.8856 84.0192 45.3668C79.929 44.7333 78.2582 43.1777 78.2582 40.8156C78.2582 37.1862 82.4061 35.9764 84.4227 35.5731C81.0236 34.075 78.5462 30.9639 78.5462 26.8737C78.5462 20.8822 83.7315 17.1373 89.3194 17.1373C91.2208 17.1373 93.0641 17.5405 94.6775 18.3471C95.3109 15.6972 97.2123 13.2773 100.15 13.2773C101.533 13.2773 102.57 13.9111 102.57 15.1209C102.57 15.9849 101.937 16.6762 100.957 16.6762C99.4014 16.6762 99.1709 15.5242 97.7308 15.5242C96.521 15.5242 95.3687 16.6187 94.9655 18.4623C98.0188 20.0754 100.15 23.0138 100.15 26.8737C100.15 32.8078 94.9654 36.5524 89.3194 36.5524C87.7638 36.5524 86.1508 36.2641 84.7682 35.6884C83.0974 35.9764 79.6407 37.0132 79.6407 39.0298C79.6407 41.0464 82.6366 40.8159 90.414 40.8159C98.7679 40.8156 102.801 42.3134 102.801 47.4409ZM100.15 49.8605C100.15 45.1363 94.6197 45.6548 89.0889 45.6548C87.4758 45.6548 86.0355 45.597 84.8257 45.4243C82.9821 45.7123 80.1015 46.9224 80.1015 51.1853C80.1015 55.564 83.2701 58.3869 88.8587 58.3869C94.332 58.3869 100.15 55.4488 100.15 49.8605ZM83.6737 26.8734C83.6737 30.7911 84.5377 36.3219 89.3194 36.3219C94.1589 36.3219 95.0229 30.7911 95.0229 26.8734C95.0229 22.9557 94.1589 17.3675 89.3194 17.3675C84.5377 17.3675 83.6737 22.956 83.6737 26.8734Z" stroke="black" stroke-width="0.5"/>
<path d="M117.823 28.5195C117.777 27.6529 117.721 26.6115 117.731 25.8371H117.703C117.491 26.5653 117.233 27.3398 116.919 28.1969L115.823 31.2113H115.214L114.209 28.2523C113.914 27.3765 113.666 26.5746 113.491 25.8371H113.472C113.454 26.6115 113.407 27.6532 113.352 28.584L113.186 31.2479H112.421L112.855 25.0352H113.878L114.938 28.0403C115.196 28.8052 115.408 29.4876 115.565 30.1326H115.593C115.749 29.506 115.971 28.8237 116.247 28.0403L117.353 25.0352H118.377L118.764 31.2479H117.98L117.823 28.5195Z" fill="black"/>
<path d="M122.533 31.2481V28.6118L120.57 25.0353H121.482L122.358 26.7497C122.597 27.22 122.782 27.5979 122.976 28.0312H122.994C123.169 27.6256 123.381 27.22 123.621 26.7497L124.515 25.0353H125.427L123.344 28.6026V31.2481H122.533Z" fill="black"/>
<path d="M127.052 35.1641H110.74V35.5081H127.052V35.1641Z" fill="black"/>
<path d="M36.8719 54.1133H37.6453V57.8458H39.9773V58.5495H36.8719V54.1133Z" fill="black"/>
<path d="M45.8202 56.6291C45.8202 56.9587 45.7746 57.2481 45.6839 57.4971C45.5932 57.7464 45.4655 57.9544 45.3006 58.1214C45.1359 58.2884 44.9363 58.4129 44.7017 58.4952C44.4672 58.5778 44.204 58.6188 43.9128 58.6188C43.6254 58.6188 43.3654 58.5775 43.1334 58.4952C42.9009 58.4129 42.7024 58.2892 42.5375 58.1246C42.3725 57.9599 42.246 57.756 42.1573 57.513C42.0684 57.2701 42.0242 56.9881 42.0242 56.6669V54.1133H42.7975V56.6354C42.7975 57.0494 42.8971 57.364 43.097 57.5798C43.2969 57.7955 43.5728 57.903 43.9255 57.903C44.2739 57.903 44.548 57.7996 44.7479 57.5925C44.9476 57.3856 45.0475 57.0771 45.0475 56.6672V54.1136H45.8208V56.6291H45.8202Z" fill="black"/>
<path d="M51.1498 58.5492L49.9839 56.8697L48.8113 58.5492H47.9178L49.5338 56.2931L47.9811 54.1133H48.9L50.0029 55.7038L51.1119 54.1133H52.0054L50.4591 56.2804L52.0687 58.5492H51.1498Z" fill="black"/>
<path d="M57.9622 56.6291C57.9622 56.9587 57.9166 57.2481 57.8259 57.4971C57.7349 57.7464 57.6072 57.9544 57.4425 58.1214C57.2779 58.2884 57.0783 58.4129 56.8437 58.4952C56.6091 58.5778 56.3463 58.6188 56.0548 58.6188C55.7674 58.6188 55.5074 58.5775 55.2754 58.4952C55.0429 58.4129 54.8444 58.2892 54.6795 58.1246C54.5145 57.9599 54.388 57.756 54.2993 57.513C54.2103 57.2701 54.1661 56.9881 54.1661 56.6669V54.1133H54.9395V56.6354C54.9395 57.0494 55.0391 57.364 55.239 57.5798C55.4389 57.7955 55.7148 57.903 56.0675 57.903C56.4159 57.903 56.69 57.7996 56.8896 57.5925C57.0892 57.3856 57.1892 57.0771 57.1892 56.6672V54.1136H57.9625V56.6291H57.9622Z" fill="black"/>
<path d="M63.3047 58.5492L62.2113 57.0029H61.2323V58.5492H60.459V54.1133H62.4363C62.6897 54.1133 62.919 54.1459 63.1238 54.2115C63.3287 54.2771 63.502 54.3698 63.6435 54.4903C63.7851 54.6107 63.894 54.7586 63.97 54.934C64.0462 55.1093 64.0841 55.3046 64.0841 55.5201C64.0841 55.7061 64.0575 55.8719 64.0049 56.0175C63.952 56.1634 63.8792 56.2925 63.7862 56.4043C63.6932 56.5161 63.5823 56.6112 63.4534 56.6894C63.3246 56.7677 63.1822 56.8278 63.0259 56.87L64.2236 58.5495H63.3047V58.5492ZM63.0502 55.0044C62.889 54.8794 62.6622 54.8167 62.3702 54.8167H61.2323V56.3122H62.3765C62.6562 56.3122 62.8786 56.2443 63.0441 56.1085C63.2093 55.9725 63.292 55.7902 63.292 55.5611C63.292 55.3153 63.2111 55.1295 63.0502 55.0044Z" fill="black"/>
<path d="M68.3996 58.5495H67.6139V56.8004L65.8521 54.1133H66.771L68.0131 56.0779L69.268 54.1133H70.1615L68.3996 56.781V58.5495Z" fill="black"/>
<path d="M108.59 54.418C108.852 54.6211 108.982 54.8981 108.982 55.2497C108.982 55.3852 108.964 55.5056 108.929 55.6114C108.893 55.7171 108.847 55.8092 108.79 55.8875C108.734 55.9658 108.666 56.0346 108.589 56.0938C108.512 56.153 108.433 56.2039 108.354 56.246C108.484 56.2925 108.602 56.3463 108.709 56.4075C108.816 56.4687 108.909 56.5413 108.987 56.6259C109.065 56.7102 109.124 56.8105 109.166 56.9263C109.208 57.0424 109.229 57.1762 109.229 57.3281C109.229 57.5263 109.19 57.7014 109.112 57.8533C109.034 58.005 108.924 58.1327 108.78 58.2361C108.637 58.3392 108.464 58.4175 108.261 58.4703C108.059 58.5229 107.835 58.5492 107.591 58.5492H105.541V54.1133H107.527C107.975 54.1133 108.329 54.2147 108.59 54.418ZM107.982 55.8393C108.133 55.7393 108.209 55.5854 108.209 55.3774C108.209 55.1948 108.143 55.0536 108.01 54.9536C107.878 54.854 107.685 54.804 107.433 54.804H106.315V55.9892H107.376C107.628 55.9892 107.83 55.939 107.982 55.8393ZM108.229 57.7034C108.38 57.6 108.456 57.4469 108.456 57.2438C108.456 57.0537 108.382 56.9058 108.232 56.8004C108.083 56.6947 107.854 56.6418 107.547 56.6418H106.314V57.8585H107.603C107.869 57.8585 108.077 57.8068 108.229 57.7034Z" fill="black"/>
<path d="M115.788 58.5497H114.965L114.514 57.4786H112.417L111.96 58.5497H111.162L113.114 54.082H113.836L115.788 58.5497ZM113.462 55.0137L112.702 56.7879H114.229L113.462 55.0137Z" fill="black"/>
<path d="M121.286 58.2023C121.153 58.2866 121.009 58.3606 120.855 58.4242C120.701 58.4877 120.535 58.5374 120.357 58.5732C120.18 58.609 119.994 58.6272 119.8 58.6272C119.453 58.6272 119.138 58.5692 118.856 58.4528C118.573 58.3366 118.33 58.176 118.13 57.9712C117.929 57.7664 117.774 57.5243 117.664 57.2455C117.554 56.9668 117.499 56.6646 117.499 56.3394C117.499 56.0268 117.555 55.7313 117.667 55.4522C117.779 55.1732 117.936 54.9294 118.14 54.7202C118.342 54.5111 118.584 54.3456 118.865 54.2228C119.146 54.1003 119.453 54.0391 119.787 54.0391C119.981 54.0391 120.158 54.0526 120.316 54.0804C120.475 54.1078 120.622 54.1468 120.757 54.1977C120.892 54.2482 121.019 54.3106 121.14 54.3846C121.26 54.4585 121.378 54.5443 121.492 54.6414L120.997 55.2307C120.913 55.1587 120.826 55.0932 120.738 55.0342C120.649 54.975 120.556 54.9256 120.459 54.8852C120.362 54.8453 120.255 54.8132 120.139 54.7901C120.023 54.767 119.895 54.7552 119.755 54.7552C119.553 54.7552 119.364 54.7968 119.188 54.8791C119.013 54.9617 118.861 55.075 118.732 55.2191C118.603 55.363 118.501 55.5302 118.428 55.7206C118.354 55.911 118.317 56.1143 118.317 56.3301C118.317 56.5589 118.353 56.7704 118.425 56.9651C118.497 57.1598 118.599 57.3279 118.732 57.47C118.865 57.6118 119.023 57.7228 119.207 57.8034C119.391 57.8837 119.597 57.9238 119.825 57.9238C120.036 57.9238 120.234 57.8932 120.417 57.8317C120.601 57.7699 120.76 57.6884 120.896 57.5864V56.7516H119.761V56.0736H121.65V57.9368C121.54 58.029 121.419 58.1177 121.286 58.2023Z" fill="black"/>
<path d="M124.781 55.5029C124.811 55.5665 124.865 55.6254 124.943 55.6803C125.022 55.7352 125.13 55.786 125.268 55.8322C125.405 55.8787 125.58 55.9273 125.792 55.9781C126.024 56.0373 126.231 56.1026 126.411 56.1745C126.591 56.2465 126.741 56.334 126.859 56.4374C126.978 56.5411 127.068 56.6613 127.129 56.7985C127.191 56.9357 127.221 57.0975 127.221 57.2832C127.221 57.4947 127.182 57.6824 127.105 57.8471C127.027 58.0121 126.92 58.1513 126.781 58.2654C126.643 58.3795 126.477 58.4662 126.283 58.5254C126.089 58.5846 125.875 58.6141 125.643 58.6141C125.301 58.6141 124.974 58.556 124.661 58.4399C124.348 58.3235 124.059 58.1452 123.793 57.9043L124.262 57.3465C124.477 57.5325 124.695 57.6752 124.915 57.7743C125.134 57.8734 125.384 57.9231 125.662 57.9231C125.903 57.9231 126.094 57.8725 126.236 57.7711C126.377 57.6698 126.448 57.5322 126.448 57.3592C126.448 57.2792 126.434 57.2073 126.407 57.1437C126.379 57.0801 126.328 57.0224 126.254 56.9692C126.18 56.9164 126.078 56.867 125.949 56.8205C125.82 56.774 125.651 56.7254 125.444 56.6746C125.207 56.6197 124.996 56.5585 124.812 56.4909C124.628 56.4233 124.473 56.3386 124.348 56.2375C124.223 56.1358 124.128 56.0136 124.062 55.8701C123.997 55.7265 123.964 55.5511 123.964 55.344C123.964 55.1499 124.001 54.9734 124.077 54.8148C124.152 54.6565 124.256 54.5202 124.388 54.4061C124.52 54.2919 124.679 54.2044 124.865 54.1429C125.05 54.0819 125.253 54.051 125.472 54.051C125.798 54.051 126.09 54.0987 126.35 54.1937C126.61 54.2888 126.854 54.4274 127.082 54.6088L126.664 55.1984C126.461 55.0505 126.26 54.9376 126.062 54.8593C125.863 54.7813 125.662 54.742 125.46 54.742C125.231 54.742 125.054 54.794 124.927 54.8974C124.8 55.0008 124.737 55.1265 124.737 55.2744C124.737 55.3637 124.752 55.4393 124.781 55.5029Z" fill="black"/>
<path d="M135.942 54.418C136.203 54.6211 136.333 54.8981 136.333 55.2497C136.333 55.3852 136.316 55.5056 136.28 55.6114C136.244 55.7171 136.199 55.8092 136.142 55.8875C136.085 55.9658 136.018 56.0346 135.941 56.0938C135.863 56.153 135.784 56.2039 135.705 56.246C135.835 56.2925 135.954 56.3463 136.061 56.4075C136.168 56.4687 136.26 56.5413 136.338 56.6259C136.416 56.7102 136.476 56.8105 136.517 56.9263C136.56 57.0424 136.581 57.1762 136.581 57.3281C136.581 57.5263 136.542 57.7014 136.464 57.8533C136.386 58.0053 136.275 58.1327 136.132 58.2361C135.988 58.3392 135.815 58.4175 135.613 58.4703C135.411 58.5229 135.187 58.5492 134.943 58.5492H132.893V54.1133H134.879C135.326 54.1133 135.68 54.2147 135.942 54.418ZM135.333 55.8393C135.484 55.7393 135.56 55.5854 135.56 55.3774C135.56 55.1948 135.494 55.0536 135.362 54.9536C135.229 54.854 135.036 54.804 134.784 54.804H133.666V55.9892H134.727C134.98 55.9892 135.182 55.939 135.333 55.8393ZM135.58 57.7034C135.732 57.6 135.808 57.4469 135.808 57.2438C135.808 57.0537 135.733 56.9058 135.584 56.8004C135.434 56.6947 135.205 56.6418 134.898 56.6418H133.666V57.8585H134.955C135.22 57.8585 135.428 57.8068 135.58 57.7034Z" fill="black"/>
<path d="M143.165 57.2137C143.051 57.4924 142.891 57.7365 142.684 57.9457C142.477 58.1548 142.232 58.3206 141.949 58.4431C141.665 58.5656 141.353 58.6268 141.011 58.6268C140.668 58.6268 140.356 58.5664 140.073 58.4463C139.79 58.3258 139.547 58.162 139.344 57.9552C139.141 57.7481 138.983 57.5051 138.869 57.2264C138.754 56.9476 138.698 56.6521 138.698 56.3392C138.698 56.0267 138.754 55.7311 138.869 55.4521C138.983 55.1733 139.143 54.9292 139.35 54.7201C139.557 54.511 139.802 54.3454 140.085 54.2227C140.368 54.1002 140.681 54.0389 141.023 54.0389C141.365 54.0389 141.678 54.099 141.961 54.2195C142.244 54.3399 142.487 54.5037 142.69 54.7106C142.892 54.9174 143.051 55.1603 143.165 55.4391C143.279 55.7179 143.337 56.0137 143.337 56.3265C143.337 56.6394 143.279 56.9349 143.165 57.2137ZM142.408 55.7277C142.334 55.5356 142.23 55.3675 142.098 55.2239C141.964 55.08 141.805 54.9662 141.619 54.8813C141.433 54.7969 141.23 54.7548 141.011 54.7548C140.791 54.7548 140.59 54.7961 140.406 54.8784C140.222 54.9607 140.064 55.0728 139.933 55.2144C139.802 55.3559 139.7 55.5226 139.626 55.7147C139.552 55.9071 139.515 56.111 139.515 56.3265C139.515 56.542 139.552 56.7457 139.626 56.9381C139.7 57.1302 139.804 57.2983 139.937 57.4419C140.07 57.5854 140.229 57.6995 140.415 57.7842C140.601 57.8688 140.804 57.911 141.023 57.911C141.243 57.911 141.445 57.8697 141.628 57.7873C141.812 57.705 141.97 57.5929 142.101 57.4514C142.232 57.3098 142.334 57.1432 142.408 56.9508C142.482 56.7587 142.519 56.5547 142.519 56.3392C142.519 56.1237 142.482 55.9201 142.408 55.7277Z" fill="black"/>
<path d="M148.552 58.5492L147.459 57.0029H146.48V58.5492H145.707V54.1133H147.684C147.937 54.1133 148.166 54.1459 148.372 54.2115C148.576 54.2771 148.75 54.3698 148.891 54.4903C149.033 54.6107 149.141 54.7586 149.218 54.934C149.294 55.1093 149.331 55.3046 149.331 55.5201C149.331 55.7061 149.305 55.8719 149.253 56.0175C149.199 56.1634 149.127 56.2925 149.034 56.4043C148.941 56.5161 148.83 56.6112 148.701 56.6894C148.573 56.7677 148.43 56.8278 148.274 56.87L149.471 58.5495H148.552V58.5492ZM148.298 55.0044C148.136 54.8794 147.91 54.8167 147.618 54.8167H146.48V56.3122H147.624C147.904 56.3122 148.126 56.2443 148.292 56.1085C148.456 55.9725 148.539 55.7902 148.539 55.5611C148.539 55.3153 148.459 55.1295 148.298 55.0044Z" fill="black"/>
<path d="M154.56 58.5492L153.466 57.0029H152.487V58.5492H151.714V54.1133H153.691C153.945 54.1133 154.174 54.1459 154.379 54.2115C154.584 54.2771 154.757 54.3698 154.899 54.4903C155.04 54.6107 155.149 54.7586 155.225 54.934C155.301 55.1093 155.339 55.3046 155.339 55.5201C155.339 55.7061 155.313 55.8719 155.26 56.0175C155.207 56.1634 155.134 56.2925 155.042 56.4043C154.949 56.5161 154.838 56.6112 154.709 56.6894C154.58 56.7677 154.437 56.8278 154.281 56.87L155.479 58.5495H154.56V58.5492ZM154.305 55.0044C154.144 54.8794 153.917 54.8167 153.625 54.8167H152.488V56.3122H153.632C153.912 56.3122 154.134 56.2443 154.3 56.1085C154.464 55.9725 154.547 55.7902 154.547 55.5611C154.547 55.3153 154.466 55.1295 154.305 55.0044Z" fill="black"/>
<path d="M161.992 57.2137C161.879 57.4924 161.718 57.7365 161.511 57.9457C161.304 58.1548 161.059 58.3206 160.776 58.4431C160.493 58.5656 160.18 58.6268 159.838 58.6268C159.496 58.6268 159.183 58.5664 158.9 58.4463C158.617 58.3258 158.374 58.162 158.172 57.9552C157.968 57.7481 157.81 57.5051 157.696 57.2264C157.582 56.9476 157.525 56.6521 157.525 56.3392C157.525 56.0267 157.582 55.7311 157.696 55.4521C157.81 55.1733 157.971 54.9292 158.178 54.7201C158.385 54.511 158.629 54.3454 158.913 54.2227C159.196 54.1002 159.509 54.0389 159.851 54.0389C160.193 54.0389 160.506 54.099 160.788 54.2195C161.072 54.3399 161.315 54.5037 161.517 54.7106C161.72 54.9174 161.879 55.1603 161.992 55.4391C162.107 55.7179 162.164 56.0137 162.164 56.3265C162.164 56.6394 162.107 56.9349 161.992 57.2137ZM161.235 55.7277C161.161 55.5356 161.058 55.3675 160.925 55.2239C160.792 55.08 160.632 54.9662 160.447 54.8813C160.26 54.7969 160.058 54.7548 159.838 54.7548C159.619 54.7548 159.417 54.7961 159.233 54.8784C159.049 54.9607 158.892 55.0728 158.761 55.2144C158.63 55.3559 158.527 55.5226 158.454 55.7147C158.38 55.9071 158.343 56.111 158.343 56.3265C158.343 56.542 158.38 56.7457 158.454 56.9381C158.527 57.1302 158.631 57.2983 158.764 57.4419C158.897 57.5854 159.057 57.6995 159.242 57.7842C159.428 57.8688 159.631 57.911 159.851 57.911C160.07 57.911 160.272 57.8697 160.456 57.7873C160.64 57.705 160.797 57.5929 160.928 57.4514C161.059 57.3098 161.162 57.1432 161.235 56.9508C161.309 56.7587 161.346 56.5547 161.346 56.3392C161.346 56.1237 161.309 55.9201 161.235 55.7277Z" fill="black"/>
<path d="M166.943 54.1016H167.601L168.691 57.4034L169.749 54.1143H170.567L169.021 58.582H168.349L167.259 55.3943L166.169 58.582H165.498L163.951 54.1143H164.794L165.852 57.4034L166.943 54.1016Z" fill="black"/>
<path d="M176.068 54.8203H173.559V55.9611H175.783V56.6645H173.559V57.8494H176.1V58.5531H172.785V54.1172H176.068L176.068 54.8203Z" fill="black"/>
<path d="M182.297 57.2025C182.183 57.4749 182.021 57.7106 181.812 57.9091C181.603 58.1078 181.354 58.2638 181.064 58.3779C180.775 58.492 180.457 58.5492 180.111 58.5492H178.456V54.1133H180.111C180.457 54.1133 180.775 54.1693 181.064 54.2811C181.354 54.3932 181.603 54.5483 181.812 54.7468C182.021 54.9455 182.183 55.1801 182.297 55.4505C182.411 55.7209 182.468 56.0123 182.468 56.3249C182.468 56.6375 182.411 56.9301 182.297 57.2025ZM181.54 55.7298C181.465 55.5452 181.362 55.3852 181.228 55.2494C181.095 55.1136 180.933 55.0076 180.742 54.9311C180.552 54.8548 180.339 54.8167 180.107 54.8167H179.23V57.8458H180.107C180.34 57.8458 180.552 57.8088 180.742 57.7346C180.933 57.6603 181.095 57.5564 181.228 57.4226C181.362 57.2889 181.465 57.1297 181.54 56.9454C181.614 56.7608 181.651 56.5583 181.651 56.3376C181.651 56.1169 181.614 55.9144 181.54 55.7298Z" fill="black"/>
<mask id="mask0_1_2" style="mask-type:luminance" maskUnits="userSpaceOnUse" x="167" y="17" width="28" height="29">
<path d="M177.259 45.1754C181.58 45.1754 184.46 41.0833 184.46 36.5898V30.1954C182.79 30.4253 180.197 30.6561 178.123 31.0016C173.11 31.9237 172.477 36.1866 172.477 38.6065C172.477 42.2936 173.974 45.1754 177.259 45.1754ZM194.313 41.4293L194.544 41.5443C193.968 43.3316 192.642 45.5207 189.416 45.5207C186.361 45.5207 184.46 43.9651 184.46 39.9312V39.0672C183.654 42.4095 181.061 45.5207 176.74 45.5207C172.189 45.5207 167.233 44.0803 167.233 38.6637C167.233 32.7877 172.938 31.5201 177.892 30.7136L184.46 29.9074V29.5613C184.46 23.685 184.863 17.9806 178.93 17.9806C175.588 17.9806 173.398 19.1902 173.398 21.4373C173.398 22.4744 173.802 22.9351 173.802 24.261C173.802 25.7014 172.995 26.5657 171.612 26.5657C170.287 26.5657 169.422 25.4714 169.422 24.0886C169.422 20.1125 174.435 17.7501 178.93 17.7501C186.361 17.7501 189.415 21.6103 189.415 28.6973V39.8743C189.415 42.4678 189.242 44.6569 191.144 44.6569C192.699 44.6566 193.794 43.0438 194.313 41.4293Z" fill="white"/>
</mask>
<g mask="url(#mask0_1_2)">
<mask id="mask1_1_2" style="mask-type:luminance" maskUnits="userSpaceOnUse" x="-575" y="-62" width="913" height="706">
<path d="M337.907 -61.3475H-574.657V643.816H337.907V-61.3475Z" fill="white"/>
</mask>
<g mask="url(#mask1_1_2)">
<mask id="mask2_1_2" style="mask-type:luminance" maskUnits="userSpaceOnUse" x="-575" y="-62" width="913" height="706">
<path d="M337.907 -61.3632H-574.658V643.801H337.907V-61.3632Z" fill="white"/>
</mask>
<g mask="url(#mask2_1_2)">
<path d="M195.694 16.5978H166.08V46.6726H195.694V16.5978Z" fill="black"/>
</g>
</g>
</g>
<path d="M154.127 14.1354C162.135 14.1354 166.687 20.6455 166.687 28.0197C166.687 35.394 162.135 41.9041 154.127 41.9041C150.21 41.9041 147.099 39.542 145.831 36.3158L141.51 41.9041H140.934V1.28806H136.556V1H145.889V19.5509C147.156 16.4399 150.267 14.1354 154.127 14.1354ZM153.551 41.5008C160.407 41.5008 161.386 33.6081 161.386 28.0197C161.386 22.4314 160.407 14.5387 153.551 14.5387C149.288 14.5387 145.601 18.2258 145.601 22.8347V33.1472C145.601 37.8713 149.288 41.5008 153.551 41.5008Z" fill="black"/>
<path d="M166.687 28.1447C166.687 35.5191 162.135 42.0291 154.127 42.0291C150.209 42.0291 147.099 39.667 145.831 36.4409L141.51 42.0291H140.934V1.41301H136.556V1.125H145.889V19.6758C147.156 16.5647 150.267 14.2604 154.128 14.2604C162.136 14.2606 166.687 20.7707 166.687 28.1447ZM161.387 28.1447C161.387 22.5562 160.407 14.6636 153.551 14.6636C149.288 14.6636 145.601 18.3508 145.601 22.9598V33.2722C145.601 37.9965 149.289 41.6259 153.551 41.6259C160.407 41.6259 161.387 33.7333 161.387 28.1447Z" stroke="black" stroke-width="0.5"/>
<path d="M217.73 48.0305C217.73 54.8285 210.701 59.2645 203.731 59.2645C196.817 59.2645 191.748 56.2111 191.748 52.1784C191.748 48.549 195.781 46.4749 198.949 45.9564C194.859 45.3226 193.188 43.767 193.188 41.4052C193.188 37.7758 197.336 36.566 199.352 36.1627C195.953 34.6646 193.476 31.5537 193.476 27.4633C193.476 21.4718 198.661 17.7271 204.249 17.7271C206.15 17.7271 207.994 18.1304 209.607 18.9369C210.241 16.2868 212.142 13.8672 215.08 13.8672C216.463 13.8672 217.5 14.501 217.5 15.7108C217.5 16.5751 216.866 17.2664 215.887 17.2664C214.331 17.2664 214.101 16.114 212.661 16.114C211.451 16.114 210.298 17.2089 209.895 19.0522C212.949 20.6652 215.08 23.6034 215.08 27.4633C215.08 33.3973 209.895 37.142 204.249 37.142C202.694 37.142 201.081 36.854 199.698 36.2777C198.027 36.566 194.571 37.6027 194.571 39.6191C194.571 41.6354 197.566 41.4049 205.344 41.4049C213.697 41.4052 217.73 42.903 217.73 48.0305ZM215.08 50.4501C215.08 45.7258 209.549 46.2444 204.019 46.2444C202.406 46.2444 200.965 46.1869 199.755 46.0138C197.912 46.3018 195.031 47.5119 195.031 51.7748C195.031 56.1533 198.2 58.9762 203.788 58.9762C209.261 58.9764 215.08 56.0383 215.08 50.4501ZM198.603 27.4633C198.603 31.381 199.467 36.9115 204.249 36.9115C209.088 36.9115 209.952 31.3807 209.952 27.4633C209.952 23.5459 209.088 17.9576 204.249 17.9576C199.467 17.9576 198.603 23.5459 198.603 27.4633Z" fill="black"/>
<path d="M217.73 48.0308C217.73 54.8291 210.702 59.265 203.731 59.265C196.817 59.265 191.747 56.2116 191.747 52.179C191.747 48.5496 195.78 46.4752 198.949 45.9566C194.859 45.3231 193.188 43.7676 193.188 41.4055C193.188 37.7761 197.336 36.5663 199.353 36.1627C195.953 34.6649 193.476 31.5537 193.476 27.4633C193.476 21.4718 198.661 17.7271 204.249 17.7271C206.151 17.7271 207.994 18.1304 209.607 18.9369C210.241 16.2868 212.142 13.8672 215.08 13.8672C216.463 13.8672 217.5 14.5007 217.5 15.7108C217.5 16.5748 216.866 17.2664 215.887 17.2664C214.331 17.2664 214.101 16.1143 212.66 16.1143C211.451 16.1143 210.299 17.2089 209.895 19.0525C212.949 20.6655 215.08 23.6039 215.08 27.4636C215.08 33.3976 209.895 37.1423 204.249 37.1423C202.694 37.1423 201.081 36.8543 199.698 36.2782C198.027 36.5665 194.57 37.6033 194.57 39.6196C194.57 41.636 197.567 41.4057 205.344 41.4057C213.697 41.4057 217.73 42.9036 217.73 48.0308ZM215.08 50.4506C215.08 45.7264 209.549 46.2449 204.019 46.2449C202.405 46.2449 200.965 46.1872 199.755 46.0144C197.911 46.3024 195.031 47.5125 195.031 51.7754C195.031 56.1539 198.2 58.977 203.788 58.977C209.261 58.977 215.08 56.0392 215.08 50.4506ZM198.603 27.4636C198.603 31.3813 199.467 36.912 204.249 36.912C209.088 36.912 209.953 31.3813 209.953 27.4636C209.953 23.5462 209.088 17.9579 204.249 17.9579C199.467 17.9576 198.603 23.5462 198.603 27.4636Z" stroke="black" stroke-width="0.5"/>
</svg>
