<svg width="29" height="29" viewBox="0 0 29 29" fill="none" xmlns="http://www.w3.org/2000/svg">
<path d="M15.9629 9.8824L16.1092 10.6151L16.7307 10.2004L22.947 6.053L18.7996 12.2693L18.3849 12.8908L19.1176 13.0371L26.4459 14.5L19.1176 15.9629L18.3849 16.1092L18.7996 16.7307L22.947 22.947L16.7307 18.7996L16.1092 18.3849L15.9629 19.1176L14.5 26.4459L13.0371 19.1176L12.8908 18.3849L12.2693 18.7996L6.053 22.947L10.2004 16.7307L10.6151 16.1092L9.8824 15.9629L2.55414 14.5L9.8824 13.0371L10.6151 12.8908L10.2004 12.2693L6.053 6.053L12.2693 10.2004L12.8908 10.6151L13.0371 9.8824L14.5 2.55414L15.9629 9.8824Z" stroke="black"/>
</svg>
