<svg width="27" height="12" viewBox="0 0 27 12" fill="none" xmlns="http://www.w3.org/2000/svg">
<path d="M25.988 6.15846C21.2417 6.15846 6.92228 6.15846 2.20021 6.15846C2.19214 6.18572 2.18407 6.21297 2.18407 6.24022C2.29707 6.3038 2.41008 6.36739 2.52309 6.44005C4.05675 7.37566 4.89623 8.85628 5.21104 10.7457C5.22718 10.8183 5.15454 10.9092 5.12225 11C5.0496 10.9455 4.93659 10.9001 4.91238 10.8183C4.78323 10.3914 4.71865 9.93723 4.56528 9.52847C3.8711 7.65725 2.63609 6.54906 0.852201 6.21297C0.739194 6.1948 0.658473 6.02221 0.545466 5.91321C1.17508 5.67704 1.73204 5.54078 2.22443 5.27736C3.66123 4.50525 4.49264 3.17905 4.83166 1.44409C4.87202 1.22609 4.8478 0.889996 5.21911 1.03533C4.92852 3.17905 4.26662 4.2055 2.12756 5.78604C2.35358 5.78604 2.50695 5.78604 2.66031 5.78604C7.10794 5.78604 21.161 5.78603 25.6167 5.79512C25.7862 5.79512 26.0607 5.67703 25.988 6.15846Z" fill="#454545" stroke="#454545" stroke-width="0.5"/>
</svg>
